<svg width="176" height="48" viewBox="0 0 176 48" fill="none" xmlns="http://www.w3.org/2000/svg">
<path d="M58.1675 17.3322C58.1675 17.1265 58.339 16.9551 58.5447 16.9551H59.8818C60.1047 16.9551 60.259 17.1265 60.259 17.3322V25.5781C60.259 27.5667 61.5276 29.1267 63.5676 29.1267C65.6248 29.1267 66.9105 27.5838 66.9105 25.6124V17.3322C66.9105 17.1265 67.0648 16.9551 67.2877 16.9551H68.6248C68.8306 16.9551 69.002 17.1265 69.002 17.3322V25.7152C69.002 28.7496 66.7048 31.1153 63.5505 31.1153C60.4133 31.1153 58.1504 28.7496 58.1504 25.7152V17.3322H58.1675Z" fill="white"/>
<path d="M73.9385 17.3322C73.9385 17.1265 74.0928 16.9551 74.3156 16.9551H75.6357C75.8414 16.9551 76.0128 17.1265 76.0128 17.3322V29.0581H81.43C81.6529 29.0581 81.8072 29.2296 81.8072 29.4353V30.5324C81.8072 30.7382 81.6529 30.9096 81.43 30.9096H74.3328C74.1099 30.9096 73.9556 30.7382 73.9556 30.5324V17.3322H73.9385Z" fill="white"/>
<path d="M86.2134 18.8237H82.9562C82.7334 18.8237 82.5791 18.6522 82.5791 18.4465V17.3322C82.5791 17.1265 82.7334 16.9551 82.9562 16.9551H91.5278C91.7507 16.9551 91.905 17.1265 91.905 17.3322V18.4465C91.905 18.6522 91.7507 18.8237 91.5278 18.8237H88.2706V30.5324C88.2706 30.7382 88.0992 30.9096 87.8935 30.9096H86.5735C86.3677 30.9096 86.1963 30.7382 86.1963 30.5324V18.8237H86.2134Z" fill="white"/>
<path d="M95.316 17.3322C95.316 17.1265 95.4703 16.9551 95.6932 16.9551H101.11C103.51 16.9551 105.465 18.858 105.465 21.2237C105.465 23.058 104.248 24.5666 102.516 25.2695L105.242 30.3439C105.379 30.601 105.242 30.9267 104.899 30.9267H103.339C103.185 30.9267 103.065 30.8239 103.013 30.7553L100.356 25.4752H97.3389V30.5667C97.3389 30.7724 97.1675 30.9439 96.9618 30.9439H95.6589C95.436 30.9439 95.2817 30.7724 95.2817 30.5667V17.3322H95.316ZM100.956 23.7438C102.259 23.7438 103.39 22.6466 103.39 21.2751C103.39 19.9723 102.259 18.9094 100.956 18.9094H97.4075V23.7609H100.956V23.7438Z" fill="white"/>
<path d="M107.934 30.395L114.054 16.9719C114.106 16.8519 114.294 16.749 114.397 16.749H114.603C114.706 16.749 114.877 16.8519 114.946 16.9719L121.031 30.395C121.151 30.6521 120.997 30.9093 120.689 30.9093H119.437C119.197 30.9093 119.06 30.7893 118.974 30.6178L117.74 27.8921H111.226C110.831 28.8178 110.403 29.7092 110.008 30.6178C109.957 30.755 109.786 30.9093 109.546 30.9093H108.294C107.968 30.9093 107.814 30.6521 107.934 30.395ZM116.969 26.1606L114.517 20.7091H114.414L111.98 26.1777H116.969V26.1606Z" fill="white"/>
<path d="M130.357 16.749C132.38 16.749 133.82 17.4347 135.192 18.6005C135.363 18.7548 135.363 18.9948 135.209 19.1662L134.335 20.0577C134.197 20.2291 134.009 20.2291 133.837 20.0577C132.895 19.2348 131.626 18.7205 130.392 18.7205C127.546 18.7205 125.386 21.1205 125.386 23.9149C125.386 26.7092 127.563 29.0749 130.409 29.0749C131.866 29.0749 132.877 28.4921 133.837 27.7549C134.009 27.6178 134.197 27.6349 134.317 27.7378L135.243 28.6292C135.397 28.7664 135.363 29.0235 135.226 29.1607C133.872 30.4807 132.157 31.0978 130.375 31.0978C126.38 31.0978 123.174 27.9264 123.174 23.932C123.157 19.9719 126.363 16.749 130.357 16.749Z" fill="white"/>
<path d="M137.419 30.395L143.54 16.9719C143.591 16.8519 143.78 16.749 143.882 16.749H144.088C144.191 16.749 144.362 16.8519 144.431 16.9719L150.517 30.395C150.637 30.6521 150.483 30.9093 150.174 30.9093H148.922C148.682 30.9093 148.545 30.7893 148.46 30.6178L147.225 27.8921H140.711C140.317 28.8178 139.888 29.7092 139.494 30.6178C139.442 30.755 139.271 30.9093 139.031 30.9093H137.779C137.454 30.9093 137.299 30.6521 137.419 30.395ZM146.454 26.1606L144.002 20.7091H143.9L141.465 26.1777H146.454V26.1606Z" fill="white"/>
<path d="M153.739 17.3322C153.739 17.1265 153.894 16.9551 154.116 16.9551H159.534C161.934 16.9551 163.888 18.858 163.888 21.2237C163.888 23.058 162.671 24.5666 160.939 25.2695L163.665 30.3439C163.802 30.601 163.665 30.9267 163.322 30.9267H161.762C161.608 30.9267 161.488 30.8239 161.437 30.7553L158.779 25.4752H155.762V30.5667C155.762 30.7724 155.591 30.9439 155.385 30.9439H154.116C153.894 30.9439 153.739 30.7724 153.739 30.5667V17.3322ZM159.379 23.7438C160.682 23.7438 161.814 22.6466 161.814 21.2751C161.814 19.9723 160.682 18.9094 159.379 18.9094H155.831V23.7609H159.379V23.7438Z" fill="white"/>
<path d="M170.145 18.8237H166.888C166.665 18.8237 166.511 18.6522 166.511 18.4465V17.3322C166.511 17.1265 166.665 16.9551 166.888 16.9551H175.459C175.682 16.9551 175.837 17.1265 175.837 17.3322V18.4465C175.837 18.6522 175.682 18.8237 175.459 18.8237H172.202V30.5324C172.202 30.7382 172.031 30.9096 171.825 30.9096H170.505C170.299 30.9096 170.128 30.7382 170.128 30.5324V18.8237H170.145Z" fill="white"/>
<path fill-rule="evenodd" clip-rule="evenodd" d="M24.0004 48.0008C37.2554 48.0008 48.0008 37.2555 48.0008 24.0004C48.0008 10.7453 37.2554 0 24.0004 0C10.7453 0 0 10.7453 0 24.0004C0 37.2555 10.7453 48.0008 24.0004 48.0008ZM28.7823 27.0732C28.1609 26.6976 27.3638 26.9015 26.8076 27.3681C25.9484 28.0889 24.8135 28.4928 23.5894 28.4063C21.3608 28.252 19.5436 26.4348 19.4065 24.1891C19.235 21.5662 21.3265 19.389 23.9151 19.389C25.0635 19.389 26.1162 19.8243 26.9118 20.5337C27.4424 21.0069 28.2275 21.2112 28.8318 20.8364C29.4453 20.456 29.6332 19.6355 29.1351 19.1129C27.8306 17.7445 25.9745 16.8861 23.9151 16.8861C19.955 16.8861 16.7321 20.0576 16.7321 23.9833C16.7321 27.9091 19.9379 31.0806 23.9151 31.0806C25.9547 31.0806 27.8059 30.2387 29.1126 28.8754C29.6377 28.3276 29.4317 27.4658 28.7823 27.0732ZM30.6457 13.1765C31.0555 12.5094 31.9356 12.2987 32.5544 12.7785C35.8739 15.3526 38.0067 19.381 38.0067 23.8803C38.0067 31.9204 31.2866 38.3834 23.1607 37.9548C15.9092 37.5776 10.0805 31.629 9.84051 24.3774C9.67022 19.6246 11.8766 15.3751 15.3488 12.7021C15.9669 12.2263 16.8431 12.4346 17.2549 13.0972C17.6667 13.7598 17.4561 14.6245 16.8497 15.1153C14.2923 17.1854 12.652 20.3577 12.652 23.8974C12.652 30.3089 18.0006 35.4519 24.4636 35.1604C30.2751 34.9033 34.9895 30.1375 35.1952 24.326C35.3158 20.6472 33.6729 17.3265 31.0478 15.1801C30.4493 14.6907 30.241 13.8353 30.6457 13.1765Z" fill="#61B6E6"/>
</svg>
