<svg xmlns="http://www.w3.org/2000/svg" xmlns:xlink="http://www.w3.org/1999/xlink" width="175.275" height="39.722" viewBox="0 0 175.275 39.722">
  <defs>
    <clipPath id="clip-path">
      <path id="Path_9" data-name="Path 9" d="M0-2.677H175.275V-42.4H0Z" transform="translate(0 42.399)" fill="#fff"/>
    </clipPath>
  </defs>
  <g id="Group_761" data-name="Group 761" transform="translate(0 42.399)">
    <g id="Group_7" data-name="Group 7" transform="translate(0 -42.399)" clip-path="url(#clip-path)">
      <g id="Group_1" data-name="Group 1" transform="translate(0 1.502)">
        <path id="Path_1" data-name="Path 1" d="M-.546-1.619A6.642,6.642,0,0,0,1.194,3.154,5.655,5.655,0,0,0,5.46,4.986,5.655,5.655,0,0,0,9.723,3.154a6.642,6.642,0,0,0,1.741-4.773A6.654,6.654,0,0,0,9.723-6.394,5.66,5.66,0,0,0,5.46-8.224a5.66,5.66,0,0,0-4.266,1.83A6.654,6.654,0,0,0-.546-1.619m4.8,14.113A11.9,11.9,0,0,1-.666,11.443,12.7,12.7,0,0,1-4.78,8.5,14.327,14.327,0,0,1-7.6,4.026,14.8,14.8,0,0,1-8.653-1.619,14.792,14.792,0,0,1-7.6-7.263,14.359,14.359,0,0,1-4.78-11.737,12.716,12.716,0,0,1-.666-14.681a11.9,11.9,0,0,1,4.924-1.051,10.53,10.53,0,0,1,2.852.362,10.991,10.991,0,0,1,2.194.838,9.521,9.521,0,0,1,1.861,1.2V-25.641h8.107V12.194h-6l-1.2-2.7a13.266,13.266,0,0,1-2.1,1.5A11.788,11.788,0,0,1,7.5,12.043a10.858,10.858,0,0,1-3.242.451" transform="translate(8.653 25.641)" fill="#fff"/>
      </g>
      <path id="Path_2" data-name="Path 2" d="M45.446-2.762H37.34V-30.386h8.107ZM37.039-37.894a4.331,4.331,0,0,1,1.35-3.154,4.323,4.323,0,0,1,3.154-1.35,4.32,4.32,0,0,1,3.152,1.35,4.333,4.333,0,0,1,1.353,3.154A4.327,4.327,0,0,1,44.7-34.74a4.321,4.321,0,0,1-3.152,1.351,4.324,4.324,0,0,1-3.154-1.351,4.324,4.324,0,0,1-1.35-3.153" transform="translate(-2.339 42.399)" fill="#fff"/>
      <g id="Group_2" data-name="Group 2" transform="translate(81.972 10.81)">
        <path id="Path_3" data-name="Path 3" d="M-.951-.506A5.33,5.33,0,0,0-4.7.845,6.483,6.483,0,0,0-6.656,4H4.753A6.5,6.5,0,0,0,2.8.845,5.33,5.33,0,0,0-.951-.506M11.66,11.615a11.551,11.551,0,0,1-1.622,3.732,12.258,12.258,0,0,1-2.7,2.793,13.13,13.13,0,0,1-3.755,1.951,15.023,15.023,0,0,1-4.833.72A12.9,12.9,0,0,1-6.567,19.7a13.92,13.92,0,0,1-4.383-3.063,14.777,14.777,0,0,1-3-4.564A14.357,14.357,0,0,1-15.064,6.4,14.356,14.356,0,0,1-13.953.725a14.552,14.552,0,0,1,3.032-4.564A14.172,14.172,0,0,1-6.447-6.9a13.632,13.632,0,0,1,5.5-1.111A13.65,13.65,0,0,1,4.334-6.991,12.658,12.658,0,0,1,8.628-4.079,13.673,13.673,0,0,1,11.509.485,16.047,16.047,0,0,1,12.56,6.4a10.689,10.689,0,0,1-.3,2.7H-6.656A6.424,6.424,0,0,0-4.7,11.985,5.406,5.406,0,0,0-.951,13.307,6.222,6.222,0,0,0,1,13.036,4.49,4.49,0,0,0,2.291,12.4a3.3,3.3,0,0,0,.286-.191,2.878,2.878,0,0,1,1.92-.621Z" transform="translate(15.064 8.014)" fill="#fff"/>
      </g>
      <path id="Path_4" data-name="Path 4" d="M150.471-2.671h-8.107V-30.3h8.107ZM142.064-37.8a4.329,4.329,0,0,1,1.351-3.153,4.322,4.322,0,0,1,3.154-1.351,4.322,4.322,0,0,1,3.152,1.351,4.328,4.328,0,0,1,1.35,3.153,4.326,4.326,0,0,1-1.35,3.154,4.322,4.322,0,0,1-3.152,1.351,4.322,4.322,0,0,1-3.154-1.351,4.327,4.327,0,0,1-1.351-3.154" transform="translate(-8.969 42.393)" fill="#fff"/>
      <g id="Group_3" data-name="Group 3" transform="translate(114.542 1.786)">
        <path id="Path_5" data-name="Path 5" d="M-.546-.673v-9.989H-8.653V27.189H-.546V6.835H2.516A2.583,2.583,0,0,0,5.1,4.251V-.673Z" transform="translate(8.653 10.662)" fill="#fff"/>
      </g>
      <g id="Group_4" data-name="Group 4" transform="translate(49.284 11.775)">
        <path id="Path_6" data-name="Path 6" d="M-1.876-1.878H-5.13A4.819,4.819,0,0,1-9.949-6.7v-8.978a6.01,6.01,0,0,0-5.992-5.992h-8.954a4.819,4.819,0,0,1-4.819-4.819V-29.74h14.623A13.215,13.215,0,0,1-1.876-16.525Z" transform="translate(29.714 29.74)" fill="#fff"/>
      </g>
      <g id="Group_5" data-name="Group 5" transform="translate(49.337 30.628)">
        <path id="Path_7" data-name="Path 7" d="M0-.3A4.328,4.328,0,0,1,1.351-3.457,4.318,4.318,0,0,1,4.5-4.808,4.317,4.317,0,0,1,7.656-3.457,4.33,4.33,0,0,1,9.009-.3,4.327,4.327,0,0,1,7.656,2.85,4.317,4.317,0,0,1,4.5,4.2,4.318,4.318,0,0,1,1.351,2.85,4.325,4.325,0,0,1,0-.3" transform="translate(0 4.808)" fill="#fff"/>
      </g>
      <g id="Group_6" data-name="Group 6" transform="translate(145.512 12.072)">
        <path id="Path_8" data-name="Path 8" d="M-2.006,0-7.314,0A7.229,7.229,0,0,0-13.08,2.879l-3.806,5.046L-22.86.006-31.768,0l10.392,13.876L-31.768,27.651l5.441,0a7.229,7.229,0,0,0,5.783-2.895l3.657-4.883,5.824,7.777,9.057,0L-12.4,13.876Z" transform="translate(31.768)" fill="#fff"/>
      </g>
    </g>
  </g>
</svg>
