<svg xmlns="http://www.w3.org/2000/svg" id="Layer_1" data-name="Layer 1" viewBox="0 0 1497.57 837.96"><defs><style>      .cls-1 {        fill: #fff;      }      .cls-2 {        fill: #a9d044;        fill-rule: evenodd;      }    </style></defs><g><path class="cls-2" d="M973.49,116.52c-2.74,4.7-3.43,10.07-1.42,12.93,2.89,4.11,5.15,5.02,12.42,1.71h0s25.47-14.7,25.47-14.7l28.03,16.18c.16.16.3.31.41.45-.12.37-.33.85-.47,1.15-.96,1.18-4.42,1.68-6.03,1.73-6.94-.77-14.77.31-20.83,3.81-11.57,6.68-11.57,19.6,0,26.28,9.35,5.4,23.75,5.4,33.09,0,5.5-3.18,9.6-8.68,8.52-15.13.88-.71,2.49-1.35,3.97-1.81,4.28-1.33,8.45-.93,12.4,1.2,6.5,3.51,13.69,8.16,19.72,11.64-4.39,5.34-11.5,9.91-22.96,16.59l-12.44,7.18-.08.05-12.49,7.21c-31.51,18.01-33,15.6-72.55-7.24-19.69-11.37-30.28-17.1-35.97-24.47l19.85-11.46c2.6-1.5,4.48-3.4,5.96-6.02,3.72-6.61,5.22-16.39.79-18.87h0c-3.7-.64-6.14-4.03-6.14-9.5,0-8.57,6.02-19,13.44-23.28,7.42-4.28,13.44-.81,13.44,7.76,0,5.46-2.45,11.68-6.14,16.58h0Z"></path><path class="cls-2" d="M1024.78,79.02c-2.7-4.72-7.01-8.01-10.49-7.7-5,.45-6.92,1.95-7.7,9.9h0s0,29.41,0,29.41l-28.03,16.18c-.85.23-.82-.09-1.36-.85-.54-1.43.75-4.67,1.52-6.09,4.14-5.63,7.11-12.94,7.11-19.94,0-13.36-11.18-19.82-22.76-13.14-9.35,5.4-16.55,17.87-16.55,28.66,0,6.36,2.72,12.65,8.84,14.95.18,1.11-.08,2.82-.42,4.33-.98,4.38-3.42,7.79-7.24,10.14-6.3,3.88-13.9,7.77-19.94,11.26-2.42-6.47-2.84-14.91-2.89-28.18v-28.88c.16-36.29,2.99-36.38,42.54-59.21,19.69-11.37,29.95-17.67,39.17-18.92v22.92c0,3.01.71,5.58,2.24,8.17,3.86,6.53,11.59,12.72,15.95,10.12h0c2.4-2.88,6.56-3.3,11.29-.57,7.42,4.29,13.44,14.71,13.44,23.28s-6.02,12.05-13.44,7.76c-4.73-2.73-8.89-7.96-11.29-13.61h0Z"></path><path class="cls-2" d="M1031.61,142.19c5.44.02,10.44-2.06,11.91-5.24,2.12-4.56,1.77-6.97-4.73-11.62l-25.47-14.7v-32.36c.22-.85.49-.67,1.42-.75,1.51.25,3.67,2.99,4.51,4.36,2.8,6.39,7.65,12.63,13.71,16.13,11.57,6.68,22.76.22,22.76-13.14,0-10.79-7.2-23.26-16.55-28.66-5.5-3.18-12.32-3.97-17.36.18-1.05-.41-2.41-1.48-3.55-2.53-3.3-3.04-5.03-6.86-5.16-11.34-.21-7.39.22-15.94.22-22.9,6.82,1.14,14.33,5,25.85,11.58l12.44,7.18.08.05,12.49,7.21c31.35,18.28,30.01,20.77,30.01,66.45,0,22.74.33,34.77-3.2,43.38l-18.86-10.89c-2.57-1.48-5.12-2.16-8.09-2.15-6.77.03-17.89,1.45-17.83,8.19h0c4.48,12.11-17.71,15.24-28.25,11.76h0c-1.98-.69-4.52-2.04-5.95-3.19h0c-5.77-4.89-3.64-10.59,2.17-14.03,4.73-2.73,11.34-3.72,17.43-2.97h0Z"></path></g><g><path class="cls-1" d="M241.96,212.81c64.55,0,116.66,20.12,156.34,60.36,40.24,40.24,60.36,92.63,60.36,157.18,0,14.81-5.39,26.76-16.14,35.83-10.76,9.08-24.8,13.62-42.12,13.62h-218.8c3.08,12.86,10.83,23.33,23.26,31.44,12.43,8.11,26.89,12.16,43.38,12.16,25.99,0,47.36-5.45,64.13-16.35,11.46-7.54,21.1-5.45,28.92,6.29l52.81,75.45c7.54,10.9,6.57,20.26-2.94,28.08-43.31,32.69-92.49,49.04-147.54,49.04-42.19,0-81.17-10.06-116.94-30.18-36.05-20.39-64.27-47.78-84.67-82.15-20.68-34.93-31.02-72.79-31.02-113.59s10.06-79.36,30.18-114.01c20.68-35.21,48.62-62.73,83.83-82.57,35.48-20.39,74.47-30.6,116.94-30.6ZM237.77,360.77c-13.14,0-24.81,4.05-35,12.16-10.21,8.11-16.97,18.59-20.33,31.44h111.07c-2.51-12.85-8.95-23.33-19.28-31.44-10.34-8.1-22.49-12.16-36.46-12.16Z"></path><path class="cls-1" d="M721.41,212.81c56.72,0,103.52,21.38,140.41,64.13,37.17,42.48,55.75,97.1,55.75,163.88s-18.58,119.18-55.75,161.37c-37.16,42.2-83.97,63.29-140.41,63.29-31.85,0-60.08-8.11-84.67-24.31l.84,161.79c0,5.59-1.54,10.06-4.61,13.41-3.08,3.35-7.13,5.03-12.16,5.03h-136.64c-5.59,0-10.06-1.68-13.41-5.03-3.35-3.35-5.03-7.83-5.03-13.41V242.15c0-5.59,1.68-10.06,5.03-13.41s7.69-5.03,13-5.03h79.63c7.27,0,13.69,3.63,19.29,10.9l20.53,34.37c29.9-37.44,69.3-56.16,118.2-56.16ZM687.87,496.57c14.53,0,27.52-5.45,38.98-16.35,11.45-10.9,17.18-24.31,17.18-40.24s-5.73-29.76-17.18-40.66c-11.18-11.17-24.18-16.77-38.98-16.77s-28.36,5.59-39.82,16.77c-11.46,10.9-17.19,24.45-17.19,40.66s5.73,29.34,17.19,40.24c11.74,10.9,25,16.35,39.82,16.35Z"></path><path class="cls-1" d="M941.4,224.55h137.89c5.31,0,9.5,1.54,12.58,4.61,3.07,3.08,4.61,7.27,4.61,12.57v394.83c0,11.46-5.73,17.18-17.19,17.18h-137.89c-11.18,0-16.77-5.72-16.77-17.18V241.73c0-11.45,5.59-17.18,16.77-17.18Z"></path><path class="cls-1" d="M1336.18,665.48c-30.73,0-60.56-5.94-89.48-17.81-28.92-11.88-54.01-28.01-75.24-48.41-20.96-20.68-37.51-44.99-49.67-72.93-12.16-27.94-18.23-56.86-18.23-86.76,0-41.08,10.33-79.07,31.02-114.01,21.23-35.21,49.46-62.73,84.67-82.57,35.48-20.39,74.33-30.6,116.52-30.6,25.42,0,51.83,4.75,79.21,14.25,28.23,9.78,49.88,21.38,64.97,34.79,3.63,3.08,5.79,7.06,6.5,11.94.69,4.89-.36,9.58-3.15,14.04l-68.32,105.2c-3.35,5.03-7.54,8.03-12.57,9.01-5.03.98-9.64-.21-13.83-3.56-15.65-11.45-32.42-17.18-50.3-17.18-15.65,0-28.92,5.45-39.82,16.35-10.9,10.62-16.35,24.45-16.35,41.49s5.45,30.32,16.35,41.49c11.45,10.9,24.87,16.35,40.24,16.35,18.16,0,34.5-5.17,49.04-15.51,3.91-2.79,8.45-3.63,13.62-2.51,5.17,1.12,9.29,3.92,12.37,8.38l69.99,101.01c2.8,4.19,3.78,8.95,2.94,14.25-.84,5.31-3.21,9.5-7.12,12.57-18.44,13.98-41.5,25.99-69.16,36.05-28.5,9.78-53.23,14.67-74.19,14.67Z"></path></g></svg>