<svg xmlns="http://www.w3.org/2000/svg" width="80" height="92" viewBox="0 0 80 92" fill="none"><path fill-rule="evenodd" clip-rule="evenodd" d="M0 46V92H40H80V46V0H40H0V46ZM77.4563 46.0317V89.4656H40H2.54372V46.0317V2.5978H40H77.4563V46.0317ZM6.42289 22.8099V39.2204H20.5405H34.6582V35.1022V30.9839L25.9936 30.9679L17.3291 30.9518L17.3123 28.9505L17.2955 26.9492L22.0182 26.9071C24.6156 26.884 28.0787 26.8651 29.7138 26.8651L32.6868 26.865V22.7785V18.692L25.0079 18.6759L17.3291 18.6598V16.6639V14.668L25.7615 14.652L34.194 14.6359L34.2404 10.5831C34.2659 8.35413 34.2685 6.50089 34.2461 6.4649C34.2184 6.42017 29.8025 6.39945 20.3142 6.39945H6.42289V22.8099ZM40.2544 22.8103V39.2211L45.1987 39.2049L50.1431 39.1887L50.1749 30.8576L50.2067 22.5266L50.7512 23.2226C51.0506 23.6055 52.0116 24.8454 52.8867 25.978C53.7618 27.1105 55.1287 28.8783 55.9242 29.9063C56.7197 30.9344 58.6633 33.4502 60.2433 35.4972L63.1161 39.2188L67.679 39.2196L72.2419 39.2204L72.2259 22.8258L72.2099 6.43113L67.2973 6.41491L62.3847 6.39869V14.759C62.3847 19.3571 62.3632 23.1321 62.337 23.1478C62.3108 23.1635 61.8132 22.5593 61.2312 21.8051C60.6492 21.0509 59.8647 20.0347 59.4878 19.5468C59.1109 19.059 58.4839 18.2463 58.0946 17.741C57.7052 17.2357 55.6172 14.5271 53.4546 11.7218C51.2919 8.91646 49.4658 6.57135 49.3965 6.51033C49.279 6.40693 48.9654 6.39945 44.7624 6.39945H40.2544V22.8103ZM55.0715 42.2671C54.3908 42.2971 53.599 42.3778 53.0324 42.4751C52.523 42.5625 51.7647 42.7201 51.3472 42.8251C50.9298 42.9302 50.2162 43.1436 49.7615 43.2993C49.3068 43.455 48.6155 43.7235 48.2253 43.8959C47.835 44.0682 47.266 44.3449 46.9608 44.5106C46.6555 44.6765 46.1163 45.0057 45.7625 45.2424C45.4087 45.479 44.8188 45.9141 44.4515 46.2091C44.0843 46.5042 43.4534 47.0839 43.0497 47.4974C42.6459 47.911 42.1573 48.4489 41.9639 48.6928C41.7705 48.9368 41.4382 49.3951 41.2253 49.7114C41.0125 50.0277 40.6798 50.5694 40.486 50.9152C40.2922 51.2611 39.9923 51.8725 39.8195 52.274C39.6467 52.6754 39.3876 53.3706 39.2438 53.8189C39.1 54.2671 38.9134 54.9794 38.8293 55.4017C38.7451 55.8239 38.6379 56.426 38.5909 56.7397C38.5335 57.1229 38.5057 57.954 38.506 59.2741C38.5064 60.882 38.5279 61.3705 38.6245 61.9669C38.6894 62.3677 38.7973 62.9379 38.8641 63.2342C38.9309 63.5304 39.0605 64.0293 39.152 64.343C39.2435 64.6566 39.4676 65.2839 39.65 65.7369C39.8324 66.1899 40.1012 66.797 40.2472 67.086C40.3933 67.3749 40.6995 67.9246 40.9276 68.3075C41.1557 68.6904 41.5615 69.2951 41.8294 69.6513C42.0973 70.0075 42.7468 70.7277 43.2727 71.2519C43.8347 71.812 44.5491 72.4441 45.0056 72.7851C45.4328 73.1042 46.1253 73.5676 46.5448 73.8149C46.9642 74.0622 47.6031 74.4024 47.9645 74.571C48.3259 74.7396 48.9601 75.0109 49.3737 75.1739C49.7873 75.3368 50.4731 75.5649 50.8976 75.6806C51.322 75.7962 52.0843 75.9651 52.5914 76.0559C53.0986 76.1467 53.8426 76.2542 54.2448 76.2947C54.6471 76.3352 55.6916 76.3687 56.566 76.3693C57.6885 76.37 58.4175 76.3383 59.0461 76.2612C59.5358 76.2012 60.3041 76.081 60.7536 75.994C61.203 75.9071 61.9046 75.7393 62.3128 75.6211C62.7209 75.5029 63.3796 75.2762 63.7767 75.1172C64.1738 74.9581 64.9249 74.6109 65.4458 74.3454C65.9668 74.08 66.7289 73.6433 67.1393 73.3749C67.5497 73.1067 68.1145 72.7055 68.3943 72.4834C68.6741 72.2613 69.248 71.736 69.6696 71.316C70.0913 70.896 70.6294 70.31 70.8655 70.0138C71.1016 69.7176 71.5044 69.1616 71.7606 68.7782C72.0167 68.3949 72.3571 67.8389 72.517 67.5427C72.6769 67.2465 72.9396 66.7074 73.1009 66.3447C73.2621 65.9821 73.5176 65.312 73.6688 64.8558C73.8199 64.3995 74.0169 63.6983 74.1064 63.2975C74.1959 62.8968 74.3206 62.2267 74.3836 61.8085C74.4743 61.2056 74.4974 60.6679 74.4949 59.2107C74.4923 57.6345 74.4717 57.244 74.35 56.4637C74.272 55.9634 74.1109 55.176 73.9921 54.7138C73.8731 54.2516 73.6418 53.5204 73.478 53.0889C73.3141 52.6575 72.9833 51.9163 72.7428 51.442C72.5022 50.9677 72.0795 50.2407 71.8033 49.8263C71.5271 49.412 71.0729 48.8021 70.7939 48.4711C70.5148 48.14 69.9323 47.5264 69.4994 47.1075C69.0665 46.6885 68.4801 46.1699 68.1963 45.9549C67.9125 45.7398 67.3974 45.3814 67.0516 45.1583C66.7058 44.9352 66.151 44.6083 65.8188 44.4318C65.4865 44.2553 64.9141 43.9821 64.5469 43.8248C64.1796 43.6674 63.5358 43.421 63.1161 43.2773C62.6963 43.1336 62.0114 42.93 61.594 42.825C61.1765 42.72 60.4181 42.5632 59.9087 42.4766C59.3655 42.3843 58.496 42.2951 57.806 42.2609C57.159 42.2288 56.5294 42.206 56.407 42.2103C56.2846 42.2146 55.6836 42.2402 55.0715 42.2671ZM6.25355 45.5669C6.27676 47.0362 6.29571 48.9038 6.29571 49.717V51.1956H13.6407C17.6804 51.1956 20.9857 51.2169 20.9857 51.2431C20.9857 51.2693 19.9086 52.5309 18.5922 54.0468C17.2758 55.5627 15.4806 57.6299 14.6028 58.6405C13.725 59.6511 11.9058 61.7468 10.5601 63.2975C9.21443 64.8483 7.56134 66.7532 6.88661 67.5307L5.65978 68.9444V72.2918C5.65978 75.2858 5.6704 75.6434 5.76038 75.6778C5.81571 75.699 12.6122 75.7162 20.8637 75.7162H35.8665V71.5344V67.3526H28.0386H20.2107L20.4652 67.0497C20.6052 66.8832 21.5722 65.7641 22.6142 64.5628C23.6561 63.3616 25.2389 61.5377 26.1316 60.5096C27.0242 59.4816 28.5842 57.6853 29.5983 56.5179C30.6124 55.3505 31.8878 53.8821 32.4326 53.2548C32.9773 52.6275 33.9012 51.563 34.4858 50.8892L35.5485 49.664V46.2797V42.8953H20.8799H6.21138L6.25355 45.5669ZM57.9058 51.3548C58.1531 51.4025 58.5537 51.5158 58.7961 51.6067C59.0385 51.6975 59.3943 51.8595 59.5866 51.9667C59.779 52.0738 60.126 52.3007 60.3576 52.4707C60.5893 52.6407 60.9756 52.9865 61.2162 53.2392C61.4567 53.4919 61.7676 53.8695 61.9071 54.0786C62.0466 54.2877 62.2835 54.701 62.4334 54.9972C62.5834 55.2935 62.8034 55.8353 62.9223 56.2014C63.0412 56.5675 63.189 57.1377 63.2507 57.4686C63.3327 57.9078 63.3636 58.4037 63.3653 59.3058C63.3672 60.2513 63.3409 60.6746 63.2532 61.1093C63.1902 61.4217 63.0513 61.9491 62.9445 62.2815C62.8377 62.6138 62.6395 63.1248 62.504 63.417C62.3686 63.7092 62.1008 64.1834 61.9089 64.4708C61.7169 64.7582 61.3516 65.2057 61.097 65.4652C60.8425 65.7246 60.4486 66.0732 60.2217 66.2398C59.9948 66.4064 59.5821 66.6567 59.3045 66.7959C59.027 66.9352 58.5262 67.121 58.1917 67.2088C57.684 67.342 57.4362 67.3688 56.6932 67.3708C56.1113 67.3724 55.6483 67.3389 55.3566 67.2744C55.1112 67.22 54.682 67.0876 54.4027 66.9801C54.1236 66.8727 53.7176 66.68 53.5006 66.5519C53.2836 66.4238 52.8698 66.131 52.581 65.9013C52.2921 65.6715 51.8745 65.2696 51.6528 65.0083C51.4312 64.7469 51.089 64.2764 50.8925 63.9628C50.696 63.6492 50.4383 63.1807 50.3197 62.9219C50.2011 62.663 50.0355 62.2152 49.9516 61.9267C49.8677 61.6383 49.7548 61.0864 49.7008 60.7004C49.6467 60.3143 49.6025 59.6538 49.6025 59.2325C49.6025 58.8113 49.6469 58.169 49.7011 57.8052C49.7554 57.4415 49.8709 56.8989 49.958 56.5996C50.045 56.3002 50.2154 55.8417 50.3365 55.5805C50.4576 55.3193 50.6759 54.9173 50.8215 54.6871C50.9671 54.4569 51.2347 54.0833 51.4161 53.8567C51.5975 53.6302 51.9442 53.2596 52.1866 53.0331C52.429 52.8065 52.833 52.4845 53.0844 52.3175C53.3358 52.1505 53.754 51.9173 54.0139 51.7994C54.2737 51.6814 54.6824 51.5234 54.922 51.4484C55.1617 51.3733 55.6153 51.2896 55.93 51.2622C56.2448 51.2349 56.717 51.225 56.9793 51.2403C57.2417 51.2555 57.6586 51.307 57.9058 51.3548ZM19.1002 79.9683C18.8851 79.9944 18.5951 80.0737 18.4557 80.1445C18.3163 80.2154 18.1141 80.3612 18.0064 80.4685C17.8987 80.5758 17.7811 80.7694 17.7451 80.8986C17.7091 81.0279 17.6794 81.2315 17.6792 81.3512C17.679 81.4709 17.7389 81.6924 17.8123 81.8435C17.8911 82.0056 18.0541 82.192 18.2098 82.2981C18.355 82.3971 18.8546 82.617 19.32 82.7869C19.787 82.9574 20.2637 83.1758 20.3837 83.2744C20.5114 83.3793 20.632 83.5561 20.6762 83.7031C20.7344 83.8964 20.7341 84.0109 20.675 84.2076C20.621 84.3868 20.5271 84.509 20.3571 84.6211C20.2245 84.7086 19.9488 84.8073 19.7446 84.8404C19.4705 84.8848 19.2613 84.8773 18.9452 84.8116C18.7098 84.7627 18.4216 84.6745 18.3047 84.6156C18.1879 84.5567 17.9978 84.438 17.8824 84.352C17.7671 84.2658 17.632 84.211 17.5823 84.23C17.5325 84.249 17.4726 84.341 17.4491 84.4344C17.4154 84.5681 17.4387 84.6298 17.5585 84.7245C17.6422 84.7906 17.8406 84.9124 17.9996 84.9953C18.1584 85.0781 18.4563 85.1945 18.6614 85.2539C18.9288 85.3313 19.1803 85.3538 19.5491 85.3334C19.8934 85.3143 20.1739 85.2569 20.3969 85.16C20.5803 85.0804 20.8291 84.9061 20.95 84.7729C21.0708 84.6396 21.2027 84.4081 21.2432 84.2584C21.2837 84.1087 21.2992 83.8585 21.2777 83.7025C21.2563 83.5464 21.1681 83.3125 21.0818 83.1826C20.9955 83.0527 20.8022 82.8747 20.6521 82.7871C20.502 82.6994 20.03 82.5021 19.6031 82.3485C19.1762 82.1948 18.7533 82.021 18.6632 81.9622C18.5732 81.9035 18.4438 81.7642 18.3756 81.6529C18.3074 81.5415 18.2516 81.3457 18.2514 81.2177C18.2513 81.0595 18.3039 80.9225 18.4157 80.7901C18.5262 80.6592 18.6968 80.5616 18.9359 80.4923C19.1805 80.4215 19.4068 80.4013 19.66 80.4276C19.8626 80.4487 20.1927 80.5236 20.3936 80.5939C20.5944 80.6642 20.8088 80.7218 20.87 80.7218C20.9311 80.7218 21.0108 80.6666 21.0471 80.5992C21.0832 80.5318 21.1129 80.4498 21.1129 80.4169C21.1129 80.384 20.9765 80.2988 20.81 80.2274C20.6434 80.1559 20.3786 80.0686 20.2217 80.0333C20.0648 79.9979 19.8362 79.9582 19.7138 79.945C19.5914 79.9317 19.3153 79.9422 19.1002 79.9683ZM5.59618 82.6469V85.3471L6.24801 85.3437C6.60649 85.3419 7.27777 85.3179 7.73965 85.2905C8.50346 85.245 8.61711 85.2221 8.99529 85.0366C9.22404 84.9244 9.55555 84.6925 9.73202 84.5212C9.92814 84.3309 10.1322 84.0429 10.257 83.7805C10.4482 83.3783 10.461 83.3074 10.461 82.6543C10.461 82.0247 10.4439 81.9209 10.2845 81.5816C10.1873 81.3749 10.0033 81.0787 9.87555 80.9234C9.74773 80.768 9.47663 80.5336 9.27307 80.4025C9.06944 80.2714 8.76699 80.134 8.60089 80.0973C8.43478 80.0605 7.69081 80.0116 6.94754 79.9886L5.59618 79.9467V82.6469ZM12.337 82.6533V85.3471H14.1812H16.0254V85.1253V84.9036H15.3996C15.0554 84.9036 14.3393 84.8848 13.8082 84.8619L12.8427 84.8203L12.8601 83.8323L12.8776 82.8444L14.2217 82.8272L15.5659 82.8102L15.599 82.6375C15.6173 82.5426 15.6188 82.4433 15.6025 82.417C15.5861 82.3907 14.9592 82.3691 14.2093 82.3691H12.8458V81.4199V80.4706L14.3879 80.4536L15.93 80.4366V80.2149V79.9931L14.1335 79.9762L12.337 79.9595V82.6533ZM23.3175 80.0037C23.2941 80.0269 23.275 81.2387 23.275 82.6965V85.3471H23.5294H23.7838V82.6543V79.9614H23.5718C23.4552 79.9614 23.3407 79.9804 23.3175 80.0037ZM27.5676 80.0464C27.4277 80.0927 27.1857 80.1959 27.0299 80.2757C26.8741 80.3555 26.586 80.5812 26.3897 80.7772C26.1933 80.9734 25.9489 81.3046 25.8463 81.5138C25.6729 81.8671 25.6598 81.9453 25.6598 82.6226C25.6598 83.2867 25.6754 83.3845 25.8364 83.727C25.9335 83.9337 26.1175 84.2298 26.2453 84.3852C26.3731 84.5406 26.6434 84.7744 26.8458 84.9048C27.0484 85.0352 27.4003 85.1922 27.6279 85.2535C27.9348 85.3363 28.1776 85.3564 28.5678 85.3314C28.8624 85.3125 29.2405 85.2416 29.4273 85.1702C29.6108 85.1001 29.8898 84.9675 30.0474 84.8755L30.3339 84.7082V83.7361C30.3339 82.7816 30.3313 82.7634 30.1908 82.7259C30.1121 82.7049 30.012 82.6873 29.9682 82.6868C29.9084 82.6861 29.8887 82.9028 29.8887 83.5613V84.4367L29.6502 84.5694C29.5191 84.6424 29.2422 84.7509 29.035 84.8106C28.7732 84.8859 28.5255 84.9095 28.2236 84.8881C27.9091 84.8656 27.6759 84.8016 27.3796 84.6562C27.1342 84.5358 26.8693 84.3413 26.7184 84.1705C26.58 84.0137 26.3999 83.751 26.3183 83.5867C26.1931 83.3343 26.1699 83.1894 26.1693 82.6543C26.1686 82.1359 26.1937 81.9663 26.3071 81.7218C26.3833 81.5574 26.58 81.2798 26.7442 81.1049C26.9138 80.9242 27.1973 80.7138 27.4006 80.6176C27.6471 80.5009 27.8996 80.4391 28.2128 80.4187C28.4632 80.4024 28.8116 80.4237 28.9891 80.4661C29.1661 80.5084 29.4731 80.6403 29.6712 80.7591C29.8693 80.8779 30.057 80.9752 30.0886 80.9752C30.1201 80.9752 30.1784 80.9041 30.2181 80.8171C30.2772 80.6879 30.2707 80.6372 30.1827 80.5402C30.1234 80.475 29.869 80.3271 29.6174 80.2115C29.2067 80.0229 29.0914 79.9994 28.4909 79.9818C28.0541 79.9689 27.7337 79.9913 27.5676 80.0464ZM32.605 80.0007C32.58 80.0255 32.5596 81.2403 32.5596 82.7001V85.3544L32.8299 85.3349L33.1002 85.3154L33.132 83.0978L33.1637 80.8802L33.8315 81.7782C34.1987 82.272 34.863 83.1701 35.3075 83.774C35.7521 84.3779 36.1956 84.9642 36.2932 85.0771C36.4219 85.2259 36.5447 85.2933 36.7409 85.3228L37.0111 85.3633V82.6545V79.9456L36.8124 79.9852C36.7031 80.007 36.589 80.0248 36.5589 80.0248C36.5287 80.0248 36.4965 81.0298 36.4873 82.2583L36.4706 84.4917L35.8572 83.668C35.5198 83.215 34.7741 82.2028 34.2 81.4187C33.1635 80.0031 33.1544 79.993 32.9033 79.9743C32.7642 79.964 32.6299 79.9758 32.605 80.0007ZM49.221 82.6535V85.3658L50.5917 85.3204C51.4476 85.292 52.0984 85.24 52.3246 85.1817C52.5238 85.1303 52.7849 85.0095 52.9049 84.9133C53.0249 84.8172 53.1821 84.6259 53.2542 84.4884C53.3469 84.3119 53.3842 84.1264 53.3808 83.8581C53.3781 83.6399 53.3322 83.3943 53.2731 83.2814C53.2165 83.1734 53.0705 82.9977 52.9486 82.891C52.8268 82.7844 52.6272 82.6612 52.5051 82.6173L52.2832 82.5373L52.5646 82.3595C52.7194 82.2617 52.9004 82.0926 52.9669 81.9837C53.0333 81.8749 53.1063 81.662 53.1291 81.5107C53.1519 81.3594 53.1391 81.1195 53.1009 80.9778C53.0626 80.8361 52.9394 80.6159 52.8272 80.4886C52.715 80.3613 52.503 80.2041 52.356 80.1393C52.1325 80.0408 51.8545 80.015 50.6549 79.9814L49.221 79.9413V82.6535ZM55.2773 81.8781C55.2986 83.5199 55.3183 83.8379 55.4153 84.0954C55.4775 84.2607 55.6537 84.5348 55.8069 84.7045C55.9725 84.8881 56.2214 85.0743 56.421 85.1642C56.7094 85.2941 56.8553 85.3154 57.4563 85.3154C58.0455 85.3154 58.2042 85.2932 58.463 85.1742C58.6319 85.0965 58.8807 84.9456 59.016 84.8389C59.1513 84.7321 59.3362 84.4937 59.4268 84.309C59.5562 84.0456 59.6047 83.8172 59.6518 83.2504C59.6848 82.8528 59.7122 81.9502 59.7128 81.2445L59.7138 79.9614H59.4595H59.2051L59.1996 80.5158C59.1966 80.8208 59.1739 81.6975 59.1493 82.4642C59.1128 83.5969 59.084 83.8961 58.9957 84.0611C58.9358 84.1727 58.7821 84.3655 58.6541 84.4894C58.5155 84.6234 58.2918 84.753 58.1021 84.8092C57.9265 84.8611 57.6319 84.9036 57.4471 84.9036C57.2624 84.9036 56.9585 84.8466 56.7718 84.777C56.5851 84.7074 56.3439 84.5577 56.2359 84.4443C56.128 84.331 55.9877 84.1385 55.9242 84.0165C55.8251 83.8262 55.8023 83.5568 55.7637 82.1157C55.7389 81.1922 55.7162 80.3297 55.7131 80.199C55.7077 79.9698 55.6995 79.9614 55.48 79.9614H55.2525L55.2773 81.8781ZM61.9214 80.0006C61.8964 80.0255 61.876 81.2387 61.876 82.6965V85.3471H62.1629H62.4497L62.4331 82.6701L62.4165 79.9931L62.1917 79.9742C62.068 79.9639 61.9464 79.9757 61.9214 80.0006ZM64.7377 82.6543V85.3471H66.2041H67.6706L67.6509 85.1095L67.6312 84.8719L66.4388 84.8547L65.2464 84.8374V82.3994V79.9614H64.9921H64.7377V82.6543ZM69.3164 82.6472V85.3471L70.1908 85.3448C70.6717 85.3436 71.3473 85.3175 71.6921 85.2868C72.1893 85.2426 72.4009 85.1909 72.7145 85.0371C72.9617 84.9158 73.246 84.7009 73.4733 84.4635C73.6731 84.2547 73.9142 83.919 74.009 83.7175C74.1636 83.3889 74.1812 83.2796 74.1812 82.6543C74.1812 81.9942 74.1701 81.9346 73.9711 81.5292C73.8549 81.2924 73.6209 80.9615 73.4474 80.7886C73.2617 80.6036 72.9453 80.3856 72.6718 80.2542L72.2099 80.0323L70.7631 79.9898L69.3164 79.9473V82.6472ZM8.71224 80.6488C8.90461 80.7412 9.19078 80.9451 9.34817 81.1019C9.50556 81.2587 9.70588 81.5296 9.79332 81.7039C9.93189 81.98 9.95199 82.1019 9.94963 82.6543C9.94734 83.1922 9.92362 83.3357 9.79269 83.6047C9.70779 83.7789 9.50868 84.051 9.35021 84.2093C9.19167 84.3676 8.91892 84.5672 8.74404 84.6529C8.44782 84.7979 8.34658 84.81 7.2655 84.8294L6.10493 84.8503V82.6699C6.10493 81.4706 6.11682 80.4776 6.13138 80.4631C6.14595 80.4485 6.65386 80.4466 7.26016 80.4587C8.2987 80.4797 8.3827 80.4906 8.71224 80.6488ZM71.6693 80.4906C72.028 80.5059 72.2258 80.5514 72.4672 80.6742C72.6436 80.764 72.9074 80.9565 73.0534 81.1019C73.1994 81.2473 73.3983 81.5278 73.4956 81.7251C73.6514 82.0412 73.6725 82.1559 73.6725 82.686C73.6725 83.2529 73.6597 83.3115 73.4514 83.6942C73.3005 83.9715 73.1189 84.1883 72.8791 84.377C72.6833 84.5311 72.3871 84.6931 72.2099 84.743C72.0144 84.7981 71.4998 84.8402 70.8744 84.8522L69.8569 84.8719L69.8401 82.7181C69.8309 81.5334 69.8355 80.5326 69.8504 80.494C69.8687 80.4466 70.0923 80.4313 70.5349 80.447C70.8965 80.4598 71.407 80.4795 71.6693 80.4906ZM52.1283 80.5741C52.2513 80.6323 52.4058 80.7678 52.4715 80.8751C52.5444 80.9942 52.591 81.1887 52.5912 81.3744C52.5913 81.5416 52.5465 81.7651 52.4915 81.8709C52.4302 81.9891 52.289 82.108 52.1259 82.1789C51.9128 82.2715 51.6522 82.2987 50.8108 82.3159L49.7615 82.3375L49.7439 81.4029L49.7264 80.4683H50.8154C51.701 80.4683 51.9463 80.4881 52.1283 80.5741ZM42.9003 81.3922C42.879 81.4474 42.8617 81.761 42.8617 82.0892V82.686H42.2008C41.6567 82.686 41.533 82.7037 41.5012 82.7862C41.48 82.8413 41.4626 82.9268 41.4626 82.9763C41.4626 83.0484 41.6004 83.0661 42.16 83.0661H42.8574L42.8754 83.7472L42.8935 84.4284L43.0684 84.4484L43.2432 84.4685V83.7673V83.0661H43.9428H44.6423V82.876V82.686H43.9428H43.2432V81.989C43.2432 81.2961 43.2423 81.292 43.0911 81.292C43.0074 81.292 42.9215 81.3371 42.9003 81.3922ZM52.1045 82.881C52.239 82.9182 52.448 83.0392 52.569 83.1499C52.7023 83.272 52.81 83.4448 52.8425 83.5888C52.8719 83.7196 52.8719 83.9334 52.8425 84.064C52.81 84.2081 52.7023 84.3809 52.569 84.5029C52.448 84.6136 52.239 84.7347 52.1045 84.7719C51.9701 84.809 51.3807 84.8396 50.7949 84.8398L49.7297 84.8402V83.8264V82.8127L50.7949 82.813C51.3807 82.8132 51.9701 82.8438 52.1045 82.881Z" fill="black"></path></svg>