<svg xmlns="http://www.w3.org/2000/svg" id="Layer_1" viewBox="0 0 834 488.81"><defs><style>.cls-1{fill:#0f3551;stroke-width:0px;}</style></defs><path class="cls-1" d="M80.4,119.71v-50.71h100.2c39,0,55.2,12.6,55.2,43.2,0,2.62-.15,5.12-.45,7.51h80.09c.49-3.63.76-7.33.76-11.11C316.2,42,274.2,0,196.2,0H0v119.71h80.4Z"></path><path class="cls-1" d="M247.07,269.36c.08,1.39.13,2.79.13,4.25,0,32.4-22.8,57-61.2,57h-105.6v-61.25H0v129.05h179.4c100.2,0,148.8-46.2,148.8-118.8,0-3.53-.1-6.94-.31-10.25h-80.83Z"></path><polygon class="cls-1" points="611.23 269.36 642 398.4 722.4 398.4 758.55 269.36 611.23 269.36"></polygon><polygon class="cls-1" points="800.47 119.71 834 0 748.8 0 718.74 119.71 800.47 119.71"></polygon><polygon class="cls-1" points="651.52 119.71 623.4 0 535.8 0 510.19 119.71 651.52 119.71"></polygon><polygon class="cls-1" points="402.66 269.36 439.2 398.4 517.2 398.4 548.57 269.36 402.66 269.36"></polygon><polygon class="cls-1" points="445.55 119.71 415.2 0 326.4 0 360.29 119.71 445.55 119.71"></polygon><path class="cls-1" d="M48.58,154.33h11.35c5.33,0,11.14,1.12,11.14,7.74,0,3.4-2.11,5.72-5.25,6.71v.09c4,.52,6.66,3.48,6.66,7.44,0,6.36-6.02,8.47-11.44,8.47h-12.47v-30.44ZM55.29,166.5h4.86c2.06,0,4.21-.86,4.21-3.31s-2.41-3.18-4.51-3.18h-4.56v6.49ZM55.29,179.1h6.02c2.11,0,4.47-.9,4.47-3.57,0-2.88-3.22-3.35-5.42-3.35h-5.07v6.92Z"></path><path class="cls-1" d="M110.84,154.33h11.78c6.23,0,11.48,2.15,11.48,9.24,0,4.26-2.28,7.57-6.58,8.34l7.74,12.86h-8.04l-6.36-12.17h-3.31v12.17h-6.71v-30.44ZM117.55,166.93h3.96c2.45,0,5.63-.09,5.63-3.4,0-3.05-2.75-3.53-5.2-3.53h-4.39v6.92Z"></path><path class="cls-1" d="M173.36,154.33h20.68v6.19h-13.97v5.68h13.2v6.19h-13.2v6.19h14.75v6.19h-21.46v-30.44Z"></path><path class="cls-1" d="M244.62,154.33h5.55l13.24,30.44h-7.57l-2.62-6.45h-11.83l-2.54,6.45h-7.4l13.16-30.44ZM247.2,163.19l-3.7,9.46h7.44l-3.74-9.46Z"></path><path class="cls-1" d="M301.12,154.33h6.71v12.64l11.83-12.64h8.77l-13.54,14.15,14.71,16.3h-9.37l-12.38-14.45v14.45h-6.71v-30.44Z"></path><path class="cls-1" d="M372.2,160.27h-8.69v-5.93h24.08v5.93h-8.69v24.51h-6.71v-24.51Z"></path><path class="cls-1" d="M425.39,154.33h6.71v11.35h13.03v-11.35h6.71v30.44h-6.71v-13.16h-13.03v13.16h-6.71v-30.44Z"></path><path class="cls-1" d="M492.43,154.33h11.78c6.23,0,11.48,2.15,11.48,9.24,0,4.26-2.28,7.57-6.58,8.34l7.74,12.86h-8.04l-6.36-12.17h-3.31v12.17h-6.71v-30.44ZM499.13,166.93h3.96c2.45,0,5.63-.09,5.63-3.4,0-3.05-2.75-3.53-5.2-3.53h-4.39v6.92Z"></path><path class="cls-1" d="M569.48,153.56c9.5,0,16.43,6.23,16.43,16s-6.92,16-16.43,16-16.43-6.23-16.43-16,6.92-16,16.43-16ZM569.48,179.36c5.72,0,9.46-4.13,9.46-9.8s-3.74-9.8-9.46-9.8-9.46,4.13-9.46,9.8,3.74,9.8,9.46,9.8Z"></path><path class="cls-1" d="M650.54,173.04c0,7.18-4.39,12.51-12.81,12.51s-12.86-5.33-12.86-12.51v-18.7h6.71v18.45c0,3.74,2.58,6.58,6.15,6.58s6.11-2.84,6.11-6.58v-18.45h6.71v18.7Z"></path><path class="cls-1" d="M718.69,182.62c-3.96,2.06-8.3,2.92-12.77,2.92-9.5,0-16.43-6.23-16.43-16s6.92-16,16.43-16c4.82,0,9.07,1.07,12.13,3.91l-4.73,5.16c-1.81-1.89-4-2.88-7.4-2.88-5.72,0-9.46,4.13-9.46,9.8s3.74,9.8,9.46,9.8c2.92,0,5.07-.82,6.32-1.5v-4.94h-5.46v-6.19h11.91v15.91Z"></path><path class="cls-1" d="M758.98,154.33h6.71v11.35h13.03v-11.35h6.71v30.44h-6.71v-13.16h-13.03v13.16h-6.71v-30.44Z"></path><path class="cls-1" d="M202.99,211.33h7.31l4.86,19.52h.09l6.36-19.52h6.23l6.32,20.04h.09l5.12-20.04h6.79l-8.9,30.44h-5.98l-6.71-21.07h-.09l-6.71,21.07h-5.76l-9.03-30.44Z"></path><path class="cls-1" d="M283.83,211.33h20.68v6.19h-13.97v5.68h13.2v6.19h-13.2v6.19h14.75v6.19h-21.46v-30.44Z"></path><path class="cls-1" d="M345.32,211.33h20.68v6.19h-13.97v5.68h13.2v6.19h-13.2v6.19h14.75v6.19h-21.46v-30.44Z"></path><path class="cls-1" d="M406.81,211.33h6.71v12.64l11.83-12.64h8.77l-13.54,14.15,14.71,16.3h-9.37l-12.38-14.45v14.45h-6.71v-30.44Z"></path><path class="cls-1" d="M472.26,211.33h20.68v6.19h-13.97v5.68h13.2v6.19h-13.2v6.19h14.75v6.19h-21.46v-30.44Z"></path><path class="cls-1" d="M533.49,211.33h9.12l12.94,21.15h.09v-21.15h6.71v30.44h-8.77l-13.29-21.67h-.09v21.67h-6.71v-30.44Z"></path><path class="cls-1" d="M602.93,211.33h10.06c9.8,0,18.02,4.17,18.02,15.31,0,9.85-8.04,15.14-17.11,15.14h-10.96v-30.44ZM609.64,235.58h3.48c6.23,0,10.92-2.37,10.92-9.29,0-5.98-4.77-8.77-10.45-8.77h-3.96v18.06Z"></path><path class="cls-1" d="M12.29,457.59h7.31l4.86,19.52h.09l6.36-19.52h6.23l6.32,20.04h.09l5.12-20.04h6.79l-8.9,30.44h-5.98l-6.71-21.07h-.09l-6.71,21.07h-5.76l-9.03-30.44Z"></path><path class="cls-1" d="M92.35,457.59h6.71v30.44h-6.71v-30.44Z"></path><path class="cls-1" d="M145.03,463.52h-8.69v-5.93h24.08v5.93h-8.69v24.51h-6.71v-24.51Z"></path><path class="cls-1" d="M197.79,457.59h6.71v11.35h13.03v-11.35h6.71v30.44h-6.71v-13.16h-13.03v13.16h-6.71v-30.44Z"></path><path class="cls-1" d="M331,465.5c-1.33-1.59-3.27-2.49-5.76-2.49-5.07,0-8.81,4.13-8.81,9.8s3.74,9.8,8.6,9.8c2.71,0,4.9-1.2,6.28-3.27l5.59,4.17c-2.54,3.61-6.84,5.29-11.01,5.29-9.5,0-16.43-6.24-16.43-16s6.92-16,16.43-16c3.4,0,7.7,1.16,10.28,4.47l-5.16,4.21Z"></path><path class="cls-1" d="M389.31,456.82c9.5,0,16.43,6.23,16.43,16s-6.92,16-16.43,16-16.43-6.24-16.43-16,6.92-16,16.43-16ZM389.31,482.62c5.72,0,9.46-4.13,9.46-9.8s-3.74-9.8-9.46-9.8-9.46,4.13-9.46,9.8,3.74,9.8,9.46,9.8Z"></path><path class="cls-1" d="M454.28,457.59h5.55l13.24,30.44h-7.57l-2.62-6.45h-11.83l-2.54,6.45h-7.4l13.16-30.44ZM456.86,466.45l-3.7,9.46h7.44l-3.74-9.46Z"></path><path class="cls-1" d="M530.01,465.5c-1.33-1.59-3.27-2.49-5.76-2.49-5.07,0-8.82,4.13-8.82,9.8s3.74,9.8,8.6,9.8c2.71,0,4.9-1.2,6.28-3.27l5.59,4.17c-2.54,3.61-6.84,5.29-11.01,5.29-9.5,0-16.43-6.24-16.43-16s6.92-16,16.43-16c3.4,0,7.7,1.16,10.28,4.47l-5.16,4.21Z"></path><path class="cls-1" d="M573.52,457.59h6.71v11.35h13.03v-11.35h6.71v30.44h-6.71v-13.16h-13.03v13.16h-6.71v-30.44Z"></path><path class="cls-1" d="M701.88,465.03c-1.08-1.38-3.22-2.02-4.86-2.02-1.89,0-4.52.86-4.52,3.14,0,5.55,14.02,1.98,14.02,12.64,0,6.79-5.46,10.02-11.74,10.02-3.91,0-7.35-1.16-10.23-3.83l4.77-5.25c1.38,1.81,3.61,2.88,5.85,2.88s4.64-1.03,4.64-3.18c0-5.59-14.28-2.58-14.28-12.73,0-6.49,5.63-9.89,11.61-9.89,3.44,0,6.75.9,9.33,3.18l-4.6,5.03Z"></path><path class="cls-1" d="M745.39,457.59h6.71v30.44h-6.71v-30.44Z"></path><path class="cls-1" d="M792.18,457.59h10.06c9.8,0,18.02,4.17,18.02,15.31,0,9.85-8.04,15.14-17.11,15.14h-10.96v-30.44ZM798.89,481.84h3.48c6.23,0,10.92-2.37,10.92-9.29,0-5.98-4.77-8.77-10.45-8.77h-3.96v18.06Z"></path></svg>