<?xml version="1.0" encoding="utf-8"?>
<!-- Generator: Adobe Illustrator 28.3.0, SVG Export Plug-In . SVG Version: 6.00 Build 0)  -->
<svg version="1.1" id="Layer_1" xmlns="http://www.w3.org/2000/svg" xmlns:xlink="http://www.w3.org/1999/xlink" x="0px" y="0px"
	 viewBox="0 0 802.4 469" style="enable-background:new 0 0 802.4 469;" xml:space="preserve">
<style type="text/css">
	.st0{fill:#0F3451;}
	.st1{fill:#575756;}
	.st2{fill:#C4E2D9;}
	.st3{fill:#FFFFFF;}
</style>
<g>
	<g>
		<g>
			<path class="st0" d="M-2220.7,191.3h-39.7V2.1h39.7V191.3z"/>
			<path class="st0" d="M-2077.5,191.3h-37.1v-84.7c0-9.8-1.5-16.8-4.5-20.8c-3.7-4.7-10.3-7.1-19.7-7.1
				c-19.1,0-28.7,10.8-28.7,32.4v80.3h-37.1V51.1h35.5v13.2c0,5.1,0.1,7.6,0.3,7.6c0-0.2,0.1-0.3,0.3-0.3c4.4-7.7,10.7-13.7,18.8-18
				c8.2-4.3,16.8-6.4,25.9-6.4c18.6,0,32.1,7.3,40.5,21.8c3.9,7,5.8,15.4,5.8,25.3V191.3z"/>
			<path class="st0" d="M-1989.6,77.6h-23.9v113.7h-36.6V77.6h-20.5V51.1h20.5c0-34,19.8-51.1,59.5-51.1v30
				c-9.3,0-15.4,1.5-18.4,4.5c-3,3-4.5,8.5-4.5,16.6h23.9V77.6z"/>
			<path class="st0" d="M-1943.5,34.5h-37.1V0h37.1V34.5z M-1943.5,191.3h-37.1V51.1h37.1V191.3z"/>
			<path class="st0" d="M-1800.4,191.3h-37.1v-84.7c0-9.8-1.5-16.8-4.5-20.8c-3.7-4.7-10.3-7.1-19.7-7.1
				c-19.1,0-28.7,10.8-28.7,32.4v80.3h-37.1V51.1h35.5v13.2c0,5.1,0.1,7.6,0.3,7.6c0-0.2,0.1-0.3,0.3-0.3c4.4-7.7,10.7-13.7,18.8-18
				c8.2-4.3,16.8-6.4,25.9-6.4c18.6,0,32.1,7.3,40.5,21.8c3.9,7,5.8,15.4,5.8,25.3V191.3z"/>
			<path class="st0" d="M-1748.8,34.5h-37.1V0h37.1V34.5z M-1748.8,191.3h-37.1V51.1h37.1V191.3z"/>
			<path class="st0" d="M-1620.6,120c0,13.9-0.7,24.5-2.1,31.8c-2.1,12.1-6.2,21.6-12.4,28.4c-10,10.9-24,16.3-42.1,16.3
				c-11.2,0-21.4-2.4-30.5-7.1c-10-5.3-17.1-12.5-21.3-21.8c-3.7-8.6-5.5-18.2-5.5-28.7V13.4h37.1v37.6h76.8v26.6h-76.8v57.6
				c0,7.2,0.5,12.6,1.6,16.3c2.4,8.4,8.9,12.6,19.4,12.6c6.1,0,10.8-1.8,14.1-5.5c4.9-5.3,7.3-16.6,7.3-34V99.2h34.5V120z"/>
			<path class="st0" d="M-1481.6,131.1h-96.6c0.9,11.6,4.6,20.5,11.1,26.8c5.6,5.3,12.5,7.9,20.5,7.9c6,0,11.3-1.4,16.1-4.2
				c4.7-2.8,7.8-6.6,9.2-11.3h37.9c-4.2,14.2-11.8,25.2-22.6,33c-10.9,7.8-23.8,11.7-38.7,11.7c-46.8,0-70.3-25.5-70.3-76.6
				c0-21.6,5.9-38.8,17.8-51.7s28.5-19.3,49.9-19.3C-1503.6,47.4-1481.6,75.3-1481.6,131.1z M-1519.5,107.6
				c-0.9-9.4-4.1-16.8-9.6-22.2c-5.5-5.4-11.9-8.1-19.1-8.1c-7,0-13.1,2.5-18.2,7.6c-5.6,5.4-9.1,13-10.5,22.7H-1519.5z"/>
		</g>
	</g>
	<g>
		<g>
			<path class="st1" d="M-2061.1,436.1h4.5l7.1,25.6h0.1l7.5-25.6h5l7.5,25.6h0.1l7.1-25.6h4.5l-9.3,32.1h-4.6l-7.7-26.2h-0.1
				l-7.7,26.2h-4.6L-2061.1,436.1z"/>
			<path class="st1" d="M-2010.6,439c0-0.8,0.3-1.5,0.9-2.1c0.6-0.6,1.3-0.9,2.1-0.9s1.5,0.3,2.1,0.9c0.6,0.6,0.9,1.3,0.9,2.1
				c0,0.8-0.3,1.5-0.9,2.1c-0.6,0.6-1.3,0.9-2.1,0.9s-1.5-0.3-2.1-0.9C-2010.3,440.5-2010.6,439.8-2010.6,439z M-2009.7,446.7h4.1
				v21.5h-4.1V446.7z"/>
			<path class="st1" d="M-1983.1,450.2h-5.8v9.7c0,0.6,0,1.2,0,1.8c0,0.6,0.1,1.1,0.3,1.6c0.2,0.5,0.5,0.8,0.9,1.1
				c0.4,0.3,1,0.4,1.8,0.4c0.5,0,1,0,1.5-0.1c0.5-0.1,1-0.3,1.4-0.5v3.7c-0.5,0.3-1.1,0.5-1.9,0.6c-0.8,0.1-1.4,0.2-1.8,0.2
				c-1.6,0-2.8-0.2-3.6-0.7c-0.9-0.4-1.5-1-1.9-1.7c-0.4-0.7-0.6-1.5-0.7-2.3c-0.1-0.9-0.1-1.7-0.1-2.6v-11.2h-4.7v-3.5h4.7v-6h4.1
				v6h5.8V450.2z"/>
			<path class="st1" d="M-1973.3,433.9h4.1V450h0.1c0.5-1.1,1.4-2.1,2.7-2.8c1.3-0.7,2.7-1.1,4.4-1.1c1,0,2,0.2,3,0.5
				c1,0.3,1.8,0.8,2.5,1.5c0.7,0.7,1.3,1.5,1.7,2.6c0.4,1,0.6,2.3,0.6,3.7v13.8h-4.1v-12.7c0-1-0.1-1.9-0.4-2.6
				c-0.3-0.7-0.6-1.3-1.1-1.7c-0.5-0.4-1-0.8-1.6-1c-0.6-0.2-1.2-0.3-1.8-0.3c-0.8,0-1.6,0.1-2.4,0.4c-0.7,0.3-1.4,0.7-1.9,1.3
				c-0.5,0.6-1,1.3-1.3,2.2s-0.5,2-0.5,3.2v11.1h-4.1V433.9z"/>
			<path class="st1" d="M-1903.1,443c-0.9-1.2-2.1-2.1-3.4-2.7c-1.4-0.6-2.8-1-4.3-1c-1.8,0-3.4,0.3-4.9,1c-1.5,0.7-2.7,1.6-3.8,2.8
				c-1,1.2-1.8,2.6-2.4,4.1c-0.6,1.6-0.9,3.3-0.9,5.1c0,1.7,0.3,3.3,0.8,4.8c0.5,1.5,1.3,2.8,2.4,4c1,1.1,2.3,2.1,3.8,2.7
				c1.5,0.7,3.2,1,5,1c1.8,0,3.5-0.4,4.8-1.1c1.4-0.8,2.6-1.8,3.5-3.2l3.7,2.8c-0.2,0.3-0.7,0.8-1.3,1.4c-0.6,0.6-1.4,1.2-2.4,1.9
				c-1,0.6-2.2,1.2-3.6,1.6c-1.4,0.5-3,0.7-4.9,0.7c-2.5,0-4.8-0.5-6.9-1.4c-2-1-3.8-2.2-5.2-3.8c-1.4-1.6-2.5-3.3-3.3-5.3
				c-0.8-2-1.1-4-1.1-6c0-2.5,0.4-4.8,1.2-6.9c0.8-2.1,2-3.9,3.4-5.4c1.5-1.5,3.2-2.7,5.3-3.6c2.1-0.8,4.3-1.3,6.8-1.3
				c2.1,0,4.2,0.4,6.2,1.2c2,0.8,3.7,2.1,5,3.8L-1903.1,443z"/>
			<path class="st1" d="M-1891.1,457.4c0-1.6,0.3-3,0.9-4.4c0.6-1.4,1.4-2.5,2.4-3.6c1-1,2.2-1.8,3.6-2.4c1.4-0.6,2.9-0.9,4.5-0.9
				c1.6,0,3.1,0.3,4.5,0.9c1.4,0.6,2.6,1.4,3.6,2.4c1,1,1.8,2.2,2.4,3.6c0.6,1.4,0.9,2.8,0.9,4.4c0,1.6-0.3,3-0.9,4.4
				c-0.6,1.4-1.4,2.6-2.4,3.6c-1,1-2.2,1.8-3.6,2.4c-1.4,0.6-2.9,0.9-4.5,0.9c-1.6,0-3.1-0.3-4.5-0.9c-1.4-0.6-2.6-1.4-3.6-2.4
				c-1-1-1.8-2.2-2.4-3.6C-1890.8,460.5-1891.1,459-1891.1,457.4z M-1886.8,457.4c0,1.1,0.2,2.1,0.5,3c0.3,0.9,0.8,1.7,1.4,2.4
				c0.6,0.6,1.3,1.2,2.2,1.5c0.9,0.4,1.9,0.6,2.9,0.6s2.1-0.2,2.9-0.6s1.6-0.9,2.2-1.5c0.6-0.6,1.1-1.4,1.4-2.4
				c0.3-0.9,0.5-1.9,0.5-3c0-1.1-0.2-2.1-0.5-3c-0.3-0.9-0.8-1.7-1.4-2.4c-0.6-0.6-1.3-1.2-2.2-1.5s-1.9-0.6-2.9-0.6
				s-2.1,0.2-2.9,0.6c-0.9,0.4-1.6,0.9-2.2,1.5c-0.6,0.6-1.1,1.4-1.4,2.4C-1886.6,455.3-1886.8,456.3-1886.8,457.4z"/>
			<path class="st1" d="M-1858.5,449.3c1.1-1.1,2.5-1.8,4-2.4c1.5-0.5,3-0.8,4.5-0.8c1.6,0,2.9,0.2,4.1,0.6c1.1,0.4,2.1,0.9,2.8,1.6
				c0.7,0.7,1.3,1.4,1.6,2.3c0.3,0.9,0.5,1.8,0.5,2.7v11c0,0.8,0,1.5,0,2.1c0,0.6,0.1,1.2,0.1,1.8h-3.6c-0.1-1.1-0.1-2.2-0.1-3.3
				h-0.1c-0.9,1.4-2,2.4-3.2,2.9c-1.2,0.6-2.7,0.9-4.3,0.9c-1,0-1.9-0.1-2.9-0.4c-0.9-0.3-1.7-0.7-2.4-1.2c-0.7-0.5-1.2-1.2-1.6-2
				c-0.4-0.8-0.6-1.7-0.6-2.8c0-1.4,0.3-2.6,0.9-3.5c0.6-0.9,1.5-1.7,2.5-2.3c1.1-0.6,2.3-1,3.8-1.3c1.4-0.3,3-0.4,4.6-0.4h3v-0.9
				c0-0.5-0.1-1.1-0.3-1.6c-0.2-0.5-0.5-1-1-1.5c-0.4-0.4-1-0.8-1.6-1c-0.6-0.3-1.4-0.4-2.3-0.4c-0.8,0-1.5,0.1-2.1,0.2
				c-0.6,0.2-1.1,0.3-1.6,0.6c-0.5,0.2-0.9,0.5-1.3,0.8c-0.4,0.3-0.8,0.6-1.1,0.9L-1858.5,449.3z M-1847,457.8c-1,0-2,0.1-3,0.2
				c-1,0.1-1.9,0.3-2.8,0.6c-0.8,0.3-1.5,0.7-2,1.3c-0.5,0.5-0.8,1.2-0.8,2.1c0,1.2,0.4,2.1,1.2,2.7c0.8,0.5,2,0.8,3.4,0.8
				c1.1,0,2.1-0.2,2.9-0.6c0.8-0.4,1.4-0.9,1.9-1.5c0.5-0.6,0.8-1.3,1-2c0.2-0.7,0.3-1.5,0.3-2.2v-1.4H-1847z"/>
			<path class="st1" d="M-1815.2,452.4c-0.8-0.8-1.5-1.4-2.4-1.8c-0.8-0.4-1.8-0.6-3-0.6c-1.1,0-2.1,0.2-2.9,0.6
				c-0.8,0.4-1.5,1-2.1,1.7c-0.6,0.7-1,1.5-1.3,2.4c-0.3,0.9-0.4,1.9-0.4,2.9s0.2,1.9,0.5,2.8c0.3,0.9,0.8,1.7,1.4,2.3
				c0.6,0.7,1.3,1.2,2.2,1.6c0.8,0.4,1.8,0.6,2.9,0.6c1.1,0,2.1-0.2,2.9-0.6c0.8-0.4,1.6-1,2.3-1.8l2.9,2.9c-1.1,1.2-2.3,2-3.7,2.5
				c-1.4,0.5-2.9,0.8-4.5,0.8c-1.7,0-3.2-0.3-4.6-0.8c-1.4-0.5-2.6-1.3-3.6-2.3s-1.8-2.2-2.3-3.5c-0.5-1.4-0.8-2.9-0.8-4.6
				c0-1.7,0.3-3.2,0.8-4.6c0.5-1.4,1.3-2.6,2.3-3.6c1-1,2.2-1.8,3.5-2.3c1.4-0.6,2.9-0.8,4.6-0.8c1.6,0,3.1,0.3,4.5,0.8
				c1.4,0.6,2.7,1.4,3.7,2.6L-1815.2,452.4z"/>
			<path class="st1" d="M-1804.2,433.9h4.1V450h0.1c0.5-1.1,1.4-2.1,2.7-2.8c1.3-0.7,2.7-1.1,4.4-1.1c1,0,2,0.2,3,0.5
				c1,0.3,1.8,0.8,2.5,1.5c0.7,0.7,1.3,1.5,1.7,2.6c0.4,1,0.6,2.3,0.6,3.7v13.8h-4.1v-12.7c0-1-0.1-1.9-0.4-2.6
				c-0.3-0.7-0.6-1.3-1.1-1.7c-0.5-0.4-1-0.8-1.6-1c-0.6-0.2-1.2-0.3-1.8-0.3c-0.8,0-1.6,0.1-2.4,0.4c-0.7,0.3-1.4,0.7-1.9,1.3
				c-0.5,0.6-1,1.3-1.3,2.2s-0.5,2-0.5,3.2v11.1h-4.1V433.9z"/>
			<path class="st1" d="M-1755.4,461.4c0.8,1.2,1.8,2,3,2.6s2.5,0.8,3.8,0.8c0.7,0,1.5-0.1,2.2-0.3c0.8-0.2,1.4-0.6,2.1-1
				c0.6-0.5,1.1-1,1.5-1.7c0.4-0.7,0.6-1.4,0.6-2.3c0-1.2-0.4-2.2-1.2-2.8c-0.8-0.6-1.8-1.2-2.9-1.6c-1.2-0.4-2.4-0.9-3.8-1.3
				c-1.4-0.4-2.6-1-3.8-1.7c-1.2-0.7-2.1-1.7-2.9-2.9c-0.8-1.2-1.2-2.9-1.2-5c0-0.9,0.2-1.9,0.6-3s1-2,1.9-2.9
				c0.9-0.9,2-1.6,3.4-2.2c1.4-0.6,3-0.9,5-0.9c1.8,0,3.4,0.2,5,0.7c1.6,0.5,3,1.5,4.2,2.9l-3.5,3.2c-0.5-0.8-1.3-1.5-2.3-2
				c-1-0.5-2.1-0.8-3.4-0.8c-1.2,0-2.2,0.2-3,0.5c-0.8,0.3-1.4,0.7-1.9,1.2c-0.5,0.5-0.8,1-1,1.6c-0.2,0.6-0.3,1.1-0.3,1.6
				c0,1.4,0.4,2.4,1.2,3.1s1.8,1.3,2.9,1.8c1.2,0.5,2.4,0.9,3.8,1.2c1.4,0.4,2.6,0.9,3.8,1.5c1.2,0.6,2.1,1.5,2.9,2.6
				c0.8,1.1,1.2,2.6,1.2,4.6c0,1.5-0.3,2.9-0.9,4.2c-0.6,1.2-1.4,2.3-2.4,3.1c-1,0.8-2.2,1.5-3.5,1.9c-1.4,0.5-2.8,0.7-4.3,0.7
				c-2.1,0-4-0.4-5.8-1.1c-1.8-0.7-3.3-1.8-4.4-3.4L-1755.4,461.4z"/>
			<path class="st1" d="M-1728.3,439c0-0.8,0.3-1.5,0.9-2.1c0.6-0.6,1.3-0.9,2.1-0.9c0.8,0,1.5,0.3,2.1,0.9c0.6,0.6,0.9,1.3,0.9,2.1
				c0,0.8-0.3,1.5-0.9,2.1c-0.6,0.6-1.3,0.9-2.1,0.9c-0.8,0-1.5-0.3-2.1-0.9C-1728,440.5-1728.3,439.8-1728.3,439z M-1727.4,446.7
				h4.1v21.5h-4.1V446.7z"/>
			<path class="st1" d="M-1690.8,468.1h-4.1v-3.1h-0.1c-0.8,1.1-1.9,2-3.2,2.7c-1.4,0.6-2.8,1-4.2,1c-1.7,0-3.2-0.3-4.5-0.9
				c-1.3-0.6-2.5-1.4-3.4-2.4c-1-1-1.7-2.2-2.2-3.6c-0.5-1.4-0.8-2.8-0.8-4.4c0-1.6,0.3-3.1,0.8-4.5c0.5-1.4,1.2-2.6,2.2-3.6
				c1-1,2.1-1.8,3.4-2.4c1.3-0.6,2.8-0.9,4.5-0.9c1.5,0,3,0.3,4.3,1c1.4,0.6,2.4,1.5,3.1,2.6h0.1v-15.9h4.1V468.1z M-1701.9,464.9
				c1.1,0,2.1-0.2,2.9-0.6c0.9-0.4,1.6-0.9,2.2-1.5c0.6-0.6,1.1-1.4,1.4-2.4c0.3-0.9,0.5-1.9,0.5-3c0-1.1-0.2-2.1-0.5-3
				c-0.3-0.9-0.8-1.7-1.4-2.4c-0.6-0.6-1.3-1.2-2.2-1.5c-0.9-0.4-1.9-0.6-2.9-0.6s-2.1,0.2-2.9,0.6c-0.9,0.4-1.6,0.9-2.2,1.5
				c-0.6,0.6-1.1,1.4-1.4,2.4c-0.3,0.9-0.5,1.9-0.5,3c0,1.1,0.2,2.1,0.5,3c0.3,0.9,0.8,1.7,1.4,2.4c0.6,0.6,1.3,1.2,2.2,1.5
				C-1704,464.7-1703,464.9-1701.9,464.9z"/>
		</g>
	</g>
	<g>
		<path class="st2" d="M-1755.3,363h-37.1v-86.6c0-9.3-2.3-16.7-7-22.1c-3.9-4.8-9-7.3-15.1-7.3c-6.5,0-12,2.6-16.7,7.8
			c-5,5.7-7.5,13.3-7.5,22.6V363h-37.9V277c0-9.7-1.2-16.6-3.5-20.7c-3.4-5.6-9.8-8.3-19.1-8.3c-15.4,0-23.1,9.3-23.1,28V363h-37.9
			V219.7h35.8v13.7c0,5.2,0.1,7.8,0.3,7.8c0-0.2,0.1-0.4,0.3-0.5c5.6-8.6,11.2-14.8,16.9-18.6c6.5-4.1,14.5-6.2,24.2-6.2
			c9.7,0,17.4,1.7,23.3,5.2c5.8,3.5,11.3,9.5,16.5,17.9c5.2-7.7,10.8-13.6,16.8-17.6c6-4,13.3-6.1,21.9-6.1c9.1,0,17.9,2.3,26.2,7
			c8.3,4.7,14.2,10.7,17.6,18.2c3.4,7.4,5.1,15.2,5.1,23.3V363z"/>
		<path class="st2" d="M-1610.7,301.4h-98.7c0.9,11.8,4.7,21,11.3,27.4c5.7,5.4,12.7,8.1,21,8.1c6.1,0,11.6-1.4,16.4-4.3
			c4.8-2.9,8-6.7,9.4-11.6h38.7c-4.3,14.5-12,25.8-23.1,33.7c-11.1,8-24.3,12-39.5,12c-47.9,0-71.8-26.1-71.8-78.3
			c0-22.1,6.1-39.7,18.2-52.8c12.1-13.2,29.1-19.8,51-19.8C-1633.1,215.9-1610.7,244.4-1610.7,301.4z M-1649.4,277.5
			c-0.9-9.6-4.2-17.1-9.8-22.7c-5.6-5.5-12.1-8.3-19.5-8.3c-7.2,0-13.4,2.6-18.6,7.7c-5.7,5.5-9.3,13.2-10.8,23.2H-1649.4z"/>
		<path class="st2" d="M-1473.2,317.3c0,10.2-2.5,19.1-7.5,26.6c-10.8,15.6-29.4,23.4-55.9,23.4c-18.1,0-33.6-4.1-46.5-12.4
			c-14.3-9.3-21.6-21.9-21.8-37.6h39c0,7,3,12.5,9.1,16.4c5.4,3.4,12,5.1,19.9,5.1c7,0,13-1.4,18.2-4.2c5.1-2.8,7.7-6.4,7.7-10.9
			c0-5.9-7.6-10.6-22.9-14c-22.6-5.2-36.8-9.2-42.8-12.1c-15.2-7.3-22.9-18.6-22.9-33.9c0-9,2.2-17.1,6.5-24.5
			c4.3-7.3,11.6-13.2,21.8-17.6c10.2-4.4,21.2-6.6,33.1-6.6c16.1,0,29.7,3.9,40.6,11.6c12.5,8.6,19.3,20.8,20.2,36.6h-37.4
			c-2-12.7-10.4-19.1-25.3-19.1c-6.1,0-11.4,1.3-15.9,4c-4.5,2.7-6.7,6.1-6.7,10.2c0,5.4,7.7,9.8,23.1,13.2
			c22.4,5,36.8,9.1,43.3,12.1C-1481,291.2-1473.2,302.4-1473.2,317.3z"/>
		<g>
			<g>
				<path class="st2" d="M-1973.5,279.1c-1.5-18.9-10.2-37.3-24.5-49.8c-13.1-11.3-30.3-17.2-47.6-17.3c-12.3-0.1-24.5,2.8-35.2,8.8
					c-12.8,7.1-23.2,18-33.3,28.6c-16,16.9-32.1,33.8-48.1,50.6c-8,8.5-16.4,17.2-27.3,21.4c-16.1,6.2-35.9,0.3-46.1-13.6
					c-10.2-13.9-9.8-34.6,0.9-48.1c10.6-13.5,30.6-18.8,46.5-12.4c16,6.4,26.7,24,25.2,41.1c9.4-9.6,18.9-19.1,28.3-28.7
					c-10.7-30-43-50.7-74.8-47.9c-40.9,3.6-72.3,43.8-65.1,84.2c3.2,18.2,13.1,35.3,27.9,46.4c21.2,16,51.7,18.8,75.3,6.7
					c13.9-7.1,25-18.7,35.8-30c16.9-17.7,33.8-35.3,50.6-53c6.5-6.8,13.2-13.7,21.6-17.9c15.9-7.8,36.8-3.4,48.2,10.1
					c11.4,13.5,12.3,34.8,2.1,49.2c-10.3,14.4-30.8,20.5-47.2,14c-16.5-6.4-27.4-24.8-25.2-42.4c-9.6,9.6-19.2,19.3-28.7,28.9
					c9.7,27.9,38,48.3,67.5,48.7c14.5,0.2,28.8-4.4,40.8-12.4v18h32.5v-83.3H-1973.5z"/>
			</g>
		</g>
		<path class="st2" d="M-2162.9,358v4.5h0.1v8.5c0,8.4-3.3,15.1-9.9,20.3c-6,4.6-13,6.8-21.1,6.8c-7.5,0-13.7-2-18.6-6
			c-5.5-4.5-8.3-10.6-8.3-18.4h-30.1c0,16.7,6.1,30,18.4,39.7c11,8.7,24.6,13,40.7,13c16.4,0,30.4-4.4,42.1-13.1
			c12.7-9.8,19.1-22.9,19.1-39.1v-11.7V362v-37L-2162.9,358z"/>
	</g>
</g>
<g>
	<g>
		<g>
			<path class="st3" d="M55,191.3H15.2V2.1H55V191.3z"/>
			<path class="st3" d="M198.1,191.3H161v-84.7c0-9.8-1.5-16.8-4.5-20.8c-3.7-4.7-10.3-7.1-19.7-7.1c-19.1,0-28.7,10.8-28.7,32.4
				v80.3H71V51.1h35.5v13.2c0,5.1,0.1,7.6,0.3,7.6c0-0.2,0.1-0.3,0.3-0.3c4.4-7.7,10.7-13.7,18.8-18c8.2-4.3,16.8-6.4,25.9-6.4
				c18.6,0,32.1,7.3,40.5,21.8c3.9,7,5.8,15.4,5.8,25.3V191.3z"/>
			<path class="st3" d="M286,77.6h-23.9v113.7h-36.6V77.6H205V51.1h20.5C225.5,17,245.3,0,285,0v30c-9.3,0-15.4,1.5-18.4,4.5
				c-3,3-4.5,8.5-4.5,16.6H286V77.6z"/>
			<path class="st3" d="M332.1,34.5H295V0h37.1V34.5z M332.1,191.3H295V51.1h37.1V191.3z"/>
			<path class="st3" d="M475.3,191.3h-37.1v-84.7c0-9.8-1.5-16.8-4.5-20.8c-3.7-4.7-10.3-7.1-19.7-7.1c-19.1,0-28.7,10.8-28.7,32.4
				v80.3h-37.1V51.1h35.5v13.2c0,5.1,0.1,7.6,0.3,7.6c0-0.2,0.1-0.3,0.3-0.3c4.4-7.7,10.7-13.7,18.8-18c8.2-4.3,16.8-6.4,25.9-6.4
				c18.6,0,32.1,7.3,40.5,21.8c3.9,7,5.8,15.4,5.8,25.3V191.3z"/>
			<path class="st3" d="M526.9,34.5h-37.1V0h37.1V34.5z M526.9,191.3h-37.1V51.1h37.1V191.3z"/>
			<path class="st3" d="M655,120c0,13.9-0.7,24.5-2.1,31.8c-2.1,12.1-6.2,21.6-12.4,28.4c-10,10.9-24,16.3-42.1,16.3
				c-11.2,0-21.4-2.4-30.5-7.1c-10-5.3-17.1-12.5-21.3-21.8c-3.7-8.6-5.5-18.2-5.5-28.7V13.4h37.1v37.6H655v26.6h-76.8v57.6
				c0,7.2,0.5,12.6,1.6,16.3c2.4,8.4,8.9,12.6,19.4,12.6c6.1,0,10.8-1.8,14.1-5.5c4.9-5.3,7.3-16.6,7.3-34V99.2H655V120z"/>
			<path class="st3" d="M794,131.1h-96.6c0.9,11.6,4.6,20.5,11.1,26.8c5.6,5.3,12.5,7.9,20.5,7.9c6,0,11.3-1.4,16.1-4.2
				c4.7-2.8,7.8-6.6,9.2-11.3h37.9c-4.2,14.2-11.8,25.2-22.6,33c-10.9,7.8-23.8,11.7-38.7,11.7c-46.8,0-70.3-25.5-70.3-76.6
				c0-21.6,5.9-38.8,17.8-51.7c11.8-12.9,28.5-19.3,49.9-19.3C772.1,47.4,794,75.3,794,131.1z M756.1,107.6
				c-0.9-9.4-4.1-16.8-9.6-22.2c-5.5-5.4-11.9-8.1-19.1-8.1c-7,0-13.1,2.5-18.2,7.6c-5.6,5.4-9.1,13-10.5,22.7H756.1z"/>
		</g>
	</g>
	<g>
		<g>
			<path class="st3" d="M214.5,436.1h4.5l7.1,25.6h0.1l7.5-25.6h5l7.5,25.6h0.1l7.1-25.6h4.5l-9.3,32.1H244l-7.7-26.2h-0.1
				l-7.7,26.2h-4.6L214.5,436.1z"/>
			<path class="st3" d="M265,439c0-0.8,0.3-1.5,0.9-2.1c0.6-0.6,1.3-0.9,2.1-0.9s1.5,0.3,2.1,0.9c0.6,0.6,0.9,1.3,0.9,2.1
				c0,0.8-0.3,1.5-0.9,2.1c-0.6,0.6-1.3,0.9-2.1,0.9s-1.5-0.3-2.1-0.9C265.3,440.5,265,439.8,265,439z M266,446.7h4.1v21.5H266
				V446.7z"/>
			<path class="st3" d="M292.6,450.2h-5.8v9.7c0,0.6,0,1.2,0,1.8c0,0.6,0.1,1.1,0.3,1.6c0.2,0.5,0.5,0.8,0.9,1.1
				c0.4,0.3,1,0.4,1.8,0.4c0.5,0,1,0,1.5-0.1c0.5-0.1,1-0.3,1.4-0.5v3.7c-0.5,0.3-1.1,0.5-1.9,0.6c-0.8,0.1-1.4,0.2-1.8,0.2
				c-1.6,0-2.8-0.2-3.6-0.7c-0.9-0.4-1.5-1-1.9-1.7c-0.4-0.7-0.6-1.5-0.7-2.3c-0.1-0.9-0.1-1.7-0.1-2.6v-11.2h-4.7v-3.5h4.7v-6h4.1
				v6h5.8V450.2z"/>
			<path class="st3" d="M302.3,433.9h4.1V450h0.1c0.5-1.1,1.4-2.1,2.7-2.8c1.3-0.7,2.7-1.1,4.4-1.1c1,0,2,0.2,3,0.5
				c1,0.3,1.8,0.8,2.5,1.5c0.7,0.7,1.3,1.5,1.7,2.6c0.4,1,0.6,2.3,0.6,3.7v13.8h-4.1v-12.7c0-1-0.1-1.9-0.4-2.6
				c-0.3-0.7-0.6-1.3-1.1-1.7c-0.5-0.4-1-0.8-1.6-1c-0.6-0.2-1.2-0.3-1.8-0.3c-0.8,0-1.6,0.1-2.4,0.4c-0.7,0.3-1.4,0.7-1.9,1.3
				c-0.5,0.6-1,1.3-1.3,2.2c-0.3,0.9-0.5,2-0.5,3.2v11.1h-4.1V433.9z"/>
			<path class="st3" d="M372.5,443c-0.9-1.2-2.1-2.1-3.4-2.7c-1.4-0.6-2.8-1-4.3-1c-1.8,0-3.4,0.3-4.9,1c-1.5,0.7-2.7,1.6-3.8,2.8
				c-1,1.2-1.8,2.6-2.4,4.1c-0.6,1.6-0.9,3.3-0.9,5.1c0,1.7,0.3,3.3,0.8,4.8c0.5,1.5,1.3,2.8,2.4,4c1,1.1,2.3,2.1,3.8,2.7
				c1.5,0.7,3.2,1,5,1c1.8,0,3.5-0.4,4.8-1.1c1.4-0.8,2.6-1.8,3.5-3.2l3.7,2.8c-0.2,0.3-0.7,0.8-1.3,1.4c-0.6,0.6-1.4,1.2-2.4,1.9
				s-2.2,1.2-3.6,1.6c-1.4,0.5-3,0.7-4.9,0.7c-2.5,0-4.8-0.5-6.9-1.4c-2-1-3.8-2.2-5.2-3.8c-1.4-1.6-2.5-3.3-3.3-5.3
				c-0.8-2-1.1-4-1.1-6c0-2.5,0.4-4.8,1.2-6.9c0.8-2.1,2-3.9,3.4-5.4c1.5-1.5,3.2-2.7,5.3-3.6c2.1-0.8,4.3-1.3,6.8-1.3
				c2.1,0,4.2,0.4,6.2,1.2c2,0.8,3.7,2.1,5,3.8L372.5,443z"/>
			<path class="st3" d="M384.5,457.4c0-1.6,0.3-3,0.9-4.4c0.6-1.4,1.4-2.5,2.4-3.6c1-1,2.2-1.8,3.6-2.4c1.4-0.6,2.9-0.9,4.5-0.9
				c1.6,0,3.1,0.3,4.5,0.9c1.4,0.6,2.6,1.4,3.6,2.4c1,1,1.8,2.2,2.4,3.6c0.6,1.4,0.9,2.8,0.9,4.4c0,1.6-0.3,3-0.9,4.4
				c-0.6,1.4-1.4,2.6-2.4,3.6c-1,1-2.2,1.8-3.6,2.4c-1.4,0.6-2.9,0.9-4.5,0.9c-1.6,0-3.1-0.3-4.5-0.9c-1.4-0.6-2.6-1.4-3.6-2.4
				c-1-1-1.8-2.2-2.4-3.6C384.8,460.5,384.5,459,384.5,457.4z M388.9,457.4c0,1.1,0.2,2.1,0.5,3c0.3,0.9,0.8,1.7,1.4,2.4
				c0.6,0.6,1.3,1.2,2.2,1.5c0.9,0.4,1.9,0.6,2.9,0.6s2.1-0.2,2.9-0.6c0.9-0.4,1.6-0.9,2.2-1.5c0.6-0.6,1.1-1.4,1.4-2.4
				c0.3-0.9,0.5-1.9,0.5-3c0-1.1-0.2-2.1-0.5-3c-0.3-0.9-0.8-1.7-1.4-2.4c-0.6-0.6-1.3-1.2-2.2-1.5c-0.9-0.4-1.9-0.6-2.9-0.6
				s-2.1,0.2-2.9,0.6c-0.9,0.4-1.6,0.9-2.2,1.5c-0.6,0.6-1.1,1.4-1.4,2.4C389,455.3,388.9,456.3,388.9,457.4z"/>
			<path class="st3" d="M417.1,449.3c1.1-1.1,2.5-1.8,4-2.4c1.5-0.5,3-0.8,4.5-0.8c1.6,0,2.9,0.2,4.1,0.6c1.1,0.4,2.1,0.9,2.8,1.6
				c0.7,0.7,1.3,1.4,1.6,2.3c0.3,0.9,0.5,1.8,0.5,2.7v11c0,0.8,0,1.5,0,2.1c0,0.6,0.1,1.2,0.1,1.8h-3.6c-0.1-1.1-0.1-2.2-0.1-3.3
				h-0.1c-0.9,1.4-2,2.4-3.2,2.9c-1.2,0.6-2.7,0.9-4.3,0.9c-1,0-1.9-0.1-2.9-0.4c-0.9-0.3-1.7-0.7-2.4-1.2c-0.7-0.5-1.2-1.2-1.6-2
				c-0.4-0.8-0.6-1.7-0.6-2.8c0-1.4,0.3-2.6,0.9-3.5c0.6-0.9,1.5-1.7,2.5-2.3c1.1-0.6,2.3-1,3.8-1.3c1.4-0.3,3-0.4,4.6-0.4h3v-0.9
				c0-0.5-0.1-1.1-0.3-1.6c-0.2-0.5-0.5-1-1-1.5c-0.4-0.4-1-0.8-1.6-1c-0.6-0.3-1.4-0.4-2.3-0.4c-0.8,0-1.5,0.1-2.1,0.2
				c-0.6,0.2-1.1,0.3-1.6,0.6c-0.5,0.2-0.9,0.5-1.3,0.8c-0.4,0.3-0.8,0.6-1.1,0.9L417.1,449.3z M428.6,457.8c-1,0-2,0.1-3,0.2
				c-1,0.1-1.9,0.3-2.8,0.6c-0.8,0.3-1.5,0.7-2,1.3c-0.5,0.5-0.8,1.2-0.8,2.1c0,1.2,0.4,2.1,1.2,2.7c0.8,0.5,2,0.8,3.4,0.8
				c1.1,0,2.1-0.2,2.9-0.6c0.8-0.4,1.4-0.9,1.9-1.5c0.5-0.6,0.8-1.3,1-2c0.2-0.7,0.3-1.5,0.3-2.2v-1.4H428.6z"/>
			<path class="st3" d="M460.4,452.4c-0.8-0.8-1.5-1.4-2.4-1.8c-0.8-0.4-1.8-0.6-3-0.6c-1.1,0-2.1,0.2-2.9,0.6
				c-0.8,0.4-1.5,1-2.1,1.7c-0.6,0.7-1,1.5-1.3,2.4c-0.3,0.9-0.4,1.9-0.4,2.9s0.2,1.9,0.5,2.8c0.3,0.9,0.8,1.7,1.4,2.3
				c0.6,0.7,1.3,1.2,2.2,1.6s1.8,0.6,2.9,0.6c1.1,0,2.1-0.2,2.9-0.6c0.8-0.4,1.6-1,2.3-1.8l2.9,2.9c-1.1,1.2-2.3,2-3.7,2.5
				c-1.4,0.5-2.9,0.8-4.5,0.8c-1.7,0-3.2-0.3-4.6-0.8c-1.4-0.5-2.6-1.3-3.6-2.3s-1.8-2.2-2.3-3.5c-0.5-1.4-0.8-2.9-0.8-4.6
				c0-1.7,0.3-3.2,0.8-4.6c0.5-1.4,1.3-2.6,2.3-3.6c1-1,2.2-1.8,3.5-2.3c1.4-0.6,2.9-0.8,4.6-0.8c1.6,0,3.1,0.3,4.5,0.8
				c1.4,0.6,2.7,1.4,3.7,2.6L460.4,452.4z"/>
			<path class="st3" d="M471.4,433.9h4.1V450h0.1c0.5-1.1,1.4-2.1,2.7-2.8c1.3-0.7,2.7-1.1,4.4-1.1c1,0,2,0.2,3,0.5
				c1,0.3,1.8,0.8,2.5,1.5c0.7,0.7,1.3,1.5,1.7,2.6c0.4,1,0.6,2.3,0.6,3.7v13.8h-4.1v-12.7c0-1-0.1-1.9-0.4-2.6
				c-0.3-0.7-0.6-1.3-1.1-1.7c-0.5-0.4-1-0.8-1.6-1c-0.6-0.2-1.2-0.3-1.8-0.3c-0.8,0-1.6,0.1-2.4,0.4c-0.7,0.3-1.4,0.7-1.9,1.3
				c-0.5,0.6-1,1.3-1.3,2.2s-0.5,2-0.5,3.2v11.1h-4.1V433.9z"/>
			<path class="st3" d="M520.2,461.4c0.8,1.2,1.8,2,3,2.6c1.2,0.6,2.5,0.8,3.8,0.8c0.7,0,1.5-0.1,2.2-0.3c0.8-0.2,1.4-0.6,2.1-1
				c0.6-0.5,1.1-1,1.5-1.7c0.4-0.7,0.6-1.4,0.6-2.3c0-1.2-0.4-2.2-1.2-2.8c-0.8-0.6-1.8-1.2-2.9-1.6c-1.2-0.4-2.4-0.9-3.8-1.3
				c-1.4-0.4-2.6-1-3.8-1.7c-1.2-0.7-2.1-1.7-2.9-2.9c-0.8-1.2-1.2-2.9-1.2-5c0-0.9,0.2-1.9,0.6-3s1-2,1.9-2.9
				c0.9-0.9,2-1.6,3.4-2.2c1.4-0.6,3-0.9,5-0.9c1.8,0,3.4,0.2,5,0.7c1.6,0.5,3,1.5,4.2,2.9l-3.5,3.2c-0.5-0.8-1.3-1.5-2.3-2
				c-1-0.5-2.1-0.8-3.4-0.8c-1.2,0-2.2,0.2-3,0.5c-0.8,0.3-1.4,0.7-1.9,1.2c-0.5,0.5-0.8,1-1,1.6c-0.2,0.6-0.3,1.1-0.3,1.6
				c0,1.4,0.4,2.4,1.2,3.1c0.8,0.7,1.8,1.3,2.9,1.8c1.2,0.5,2.4,0.9,3.8,1.2c1.4,0.4,2.6,0.9,3.8,1.5c1.2,0.6,2.1,1.5,2.9,2.6
				c0.8,1.1,1.2,2.6,1.2,4.6c0,1.5-0.3,2.9-0.9,4.2c-0.6,1.2-1.4,2.3-2.4,3.1c-1,0.8-2.2,1.5-3.5,1.9c-1.4,0.5-2.8,0.7-4.3,0.7
				c-2.1,0-4-0.4-5.8-1.1c-1.8-0.7-3.3-1.8-4.4-3.4L520.2,461.4z"/>
			<path class="st3" d="M547.3,439c0-0.8,0.3-1.5,0.9-2.1c0.6-0.6,1.3-0.9,2.1-0.9s1.5,0.3,2.1,0.9c0.6,0.6,0.9,1.3,0.9,2.1
				c0,0.8-0.3,1.5-0.9,2.1c-0.6,0.6-1.3,0.9-2.1,0.9s-1.5-0.3-2.1-0.9C547.6,440.5,547.3,439.8,547.3,439z M548.2,446.7h4.1v21.5
				h-4.1V446.7z"/>
			<path class="st3" d="M584.8,468.1h-4.1v-3.1h-0.1c-0.8,1.1-1.9,2-3.2,2.7c-1.4,0.6-2.8,1-4.2,1c-1.7,0-3.2-0.3-4.5-0.9
				c-1.3-0.6-2.5-1.4-3.4-2.4c-1-1-1.7-2.2-2.2-3.6c-0.5-1.4-0.8-2.8-0.8-4.4c0-1.6,0.3-3.1,0.8-4.5c0.5-1.4,1.2-2.6,2.2-3.6
				c1-1,2.1-1.8,3.4-2.4c1.3-0.6,2.8-0.9,4.5-0.9c1.5,0,3,0.3,4.3,1c1.4,0.6,2.4,1.5,3.1,2.6h0.1v-15.9h4.1V468.1z M573.7,464.9
				c1.1,0,2.1-0.2,2.9-0.6c0.9-0.4,1.6-0.9,2.2-1.5c0.6-0.6,1.1-1.4,1.4-2.4c0.3-0.9,0.5-1.9,0.5-3c0-1.1-0.2-2.1-0.5-3
				c-0.3-0.9-0.8-1.7-1.4-2.4c-0.6-0.6-1.3-1.2-2.2-1.5c-0.9-0.4-1.9-0.6-2.9-0.6c-1.1,0-2.1,0.2-2.9,0.6c-0.9,0.4-1.6,0.9-2.2,1.5
				c-0.6,0.6-1.1,1.4-1.4,2.4c-0.3,0.9-0.5,1.9-0.5,3c0,1.1,0.2,2.1,0.5,3c0.3,0.9,0.8,1.7,1.4,2.4c0.6,0.6,1.3,1.2,2.2,1.5
				C571.6,464.7,572.6,464.9,573.7,464.9z"/>
		</g>
	</g>
	<g>
		<path class="st2" d="M520.3,363h-37.1v-86.6c0-9.3-2.3-16.7-7-22.1c-3.9-4.8-9-7.3-15.1-7.3c-6.5,0-12,2.6-16.7,7.8
			c-5,5.7-7.5,13.3-7.5,22.6V363H399V277c0-9.7-1.2-16.6-3.5-20.7c-3.4-5.6-9.8-8.3-19.1-8.3c-15.4,0-23.1,9.3-23.1,28V363h-37.9
			V219.7h35.8v13.7c0,5.2,0.1,7.8,0.3,7.8c0-0.2,0.1-0.4,0.3-0.5c5.6-8.6,11.2-14.8,16.9-18.6c6.5-4.1,14.5-6.2,24.2-6.2
			c9.7,0,17.4,1.7,23.3,5.2c5.8,3.5,11.3,9.5,16.5,17.9c5.2-7.7,10.8-13.6,16.8-17.6c6-4,13.3-6.1,21.9-6.1c9.1,0,17.9,2.3,26.2,7
			c8.3,4.7,14.2,10.7,17.6,18.2c3.4,7.4,5.1,15.2,5.1,23.3V363z"/>
		<path class="st2" d="M665,301.4h-98.7c0.9,11.8,4.7,21,11.3,27.4c5.7,5.4,12.7,8.1,21,8.1c6.1,0,11.6-1.4,16.4-4.3
			c4.8-2.9,8-6.7,9.4-11.6h38.7c-4.3,14.5-12,25.8-23.1,33.7c-11.1,8-24.3,12-39.5,12c-47.9,0-71.8-26.1-71.8-78.3
			c0-22.1,6.1-39.7,18.2-52.8c12.1-13.2,29.1-19.8,51-19.8C642.5,215.9,665,244.4,665,301.4z M626.2,277.5
			c-0.9-9.6-4.2-17.1-9.8-22.7c-5.6-5.5-12.1-8.3-19.5-8.3c-7.2,0-13.4,2.6-18.6,7.7c-5.7,5.5-9.3,13.2-10.8,23.2H626.2z"/>
		<path class="st2" d="M802.4,317.3c0,10.2-2.5,19.1-7.5,26.6c-10.8,15.6-29.4,23.4-55.9,23.4c-18.1,0-33.6-4.1-46.5-12.4
			c-14.3-9.3-21.6-21.9-21.8-37.6h39c0,7,3,12.5,9.1,16.4c5.4,3.4,12,5.1,19.9,5.1c7,0,13-1.4,18.2-4.2c5.1-2.8,7.7-6.4,7.7-10.9
			c0-5.9-7.6-10.6-22.9-14c-22.6-5.2-36.8-9.2-42.8-12.1c-15.2-7.3-22.9-18.6-22.9-33.9c0-9,2.2-17.1,6.5-24.5
			c4.3-7.3,11.6-13.2,21.8-17.6c10.2-4.4,21.2-6.6,33.1-6.6c16.1,0,29.7,3.9,40.6,11.6c12.5,8.6,19.3,20.8,20.2,36.6h-37.4
			c-2-12.7-10.4-19.1-25.3-19.1c-6.1,0-11.4,1.3-15.9,4c-4.5,2.7-6.7,6.1-6.7,10.2c0,5.4,7.7,9.8,23.1,13.2
			c22.4,5,36.8,9.1,43.3,12.1C794.7,291.2,802.4,302.4,802.4,317.3z"/>
		<g>
			<g>
				<path class="st2" d="M302.2,279.1c-1.5-18.9-10.2-37.3-24.5-49.8C264.6,218,247.3,212.1,230,212c-12.3-0.1-24.5,2.8-35.2,8.8
					c-12.8,7.1-23.2,18-33.3,28.6c-16,16.9-32.1,33.8-48.1,50.6c-8,8.5-16.4,17.2-27.3,21.4c-16.1,6.2-35.9,0.3-46.1-13.6
					c-10.2-13.9-9.8-34.6,0.9-48.1c10.6-13.5,30.6-18.8,46.5-12.4c16,6.4,26.7,24,25.2,41.1c9.4-9.6,18.9-19.1,28.3-28.7
					c-10.7-30-43-50.7-74.8-47.9C25.2,215.4-6.2,255.6,1,296c3.2,18.2,13.1,35.3,27.9,46.4c21.2,16,51.7,18.8,75.3,6.7
					c13.9-7.1,25-18.7,35.8-30c16.9-17.7,33.8-35.3,50.6-53c6.5-6.8,13.2-13.7,21.6-17.9c15.9-7.8,36.8-3.4,48.2,10.1
					c11.4,13.5,12.3,34.8,2.1,49.2c-10.3,14.4-30.8,20.5-47.2,14c-16.5-6.4-27.4-24.8-25.2-42.4c-9.6,9.6-19.2,19.3-28.7,28.9
					c9.7,27.9,38,48.3,67.5,48.7c14.5,0.2,28.8-4.4,40.8-12.4v18h32.5v-83.3H302.2z"/>
			</g>
		</g>
		<path class="st2" d="M112.7,358v4.5h0.1v8.5c0,8.4-3.3,15.1-9.9,20.3c-6,4.6-13,6.8-21.1,6.8c-7.5,0-13.7-2-18.6-6
			c-5.5-4.5-8.3-10.6-8.3-18.4H24.9c0,16.7,6.1,30,18.4,39.7c11,8.7,24.6,13,40.7,13c16.4,0,30.4-4.4,42.1-13.1
			c12.7-9.8,19.1-22.9,19.1-39.1v-11.7V362v-37L112.7,358z"/>
	</g>
</g>
<g>
	<g>
		<g>
			<path class="st3" d="M-1077.3,191.3h-39.7V2.1h39.7V191.3z"/>
			<path class="st3" d="M-934.1,191.3h-37.1v-84.7c0-9.8-1.5-16.8-4.5-20.8c-3.7-4.7-10.3-7.1-19.7-7.1c-19.1,0-28.7,10.8-28.7,32.4
				v80.3h-37.1V51.1h35.5v13.2c0,5.1,0.1,7.6,0.3,7.6c0-0.2,0.1-0.3,0.3-0.3c4.4-7.7,10.7-13.7,18.8-18c8.2-4.3,16.8-6.4,25.9-6.4
				c18.6,0,32.1,7.3,40.5,21.8c3.9,7,5.8,15.4,5.8,25.3V191.3z"/>
			<path class="st3" d="M-846.2,77.6h-23.9v113.7h-36.6V77.6h-20.5V51.1h20.5c0-34,19.8-51.1,59.5-51.1v30c-9.3,0-15.4,1.5-18.4,4.5
				c-3,3-4.5,8.5-4.5,16.6h23.9V77.6z"/>
			<path class="st3" d="M-800.1,34.5h-37.1V0h37.1V34.5z M-800.1,191.3h-37.1V51.1h37.1V191.3z"/>
			<path class="st3" d="M-657,191.3h-37.1v-84.7c0-9.8-1.5-16.8-4.5-20.8c-3.7-4.7-10.3-7.1-19.7-7.1c-19.1,0-28.7,10.8-28.7,32.4
				v80.3h-37.1V51.1h35.5v13.2c0,5.1,0.1,7.6,0.3,7.6c0-0.2,0.1-0.3,0.3-0.3c4.4-7.7,10.7-13.7,18.8-18c8.2-4.3,16.8-6.4,25.9-6.4
				c18.6,0,32.1,7.3,40.5,21.8c3.9,7,5.8,15.4,5.8,25.3V191.3z"/>
			<path class="st3" d="M-605.4,34.5h-37.1V0h37.1V34.5z M-605.4,191.3h-37.1V51.1h37.1V191.3z"/>
			<path class="st3" d="M-477.2,120c0,13.9-0.7,24.5-2.1,31.8c-2.1,12.1-6.2,21.6-12.4,28.4c-10,10.9-24,16.3-42.1,16.3
				c-11.2,0-21.4-2.4-30.5-7.1c-10-5.3-17.1-12.5-21.3-21.8c-3.7-8.6-5.5-18.2-5.5-28.7V13.4h37.1v37.6h76.8v26.6h-76.8v57.6
				c0,7.2,0.5,12.6,1.6,16.3c2.4,8.4,8.9,12.6,19.4,12.6c6.1,0,10.8-1.8,14.1-5.5c4.9-5.3,7.3-16.6,7.3-34V99.2h34.5V120z"/>
			<path class="st3" d="M-338.2,131.1h-96.6c0.9,11.6,4.6,20.5,11.1,26.8c5.6,5.3,12.5,7.9,20.5,7.9c6,0,11.3-1.4,16.1-4.2
				c4.7-2.8,7.8-6.6,9.2-11.3h37.9c-4.2,14.2-11.8,25.2-22.6,33c-10.9,7.8-23.8,11.7-38.7,11.7c-46.8,0-70.3-25.5-70.3-76.6
				c0-21.6,5.9-38.8,17.8-51.7s28.5-19.3,49.9-19.3C-360.2,47.4-338.2,75.3-338.2,131.1z M-376.1,107.6c-0.9-9.4-4.1-16.8-9.6-22.2
				c-5.5-5.4-11.9-8.1-19.1-8.1c-7,0-13.1,2.5-18.2,7.6c-5.6,5.4-9.1,13-10.5,22.7H-376.1z"/>
		</g>
	</g>
	<g>
		<g>
			<path class="st3" d="M-917.7,436.1h4.5l7.1,25.6h0.1l7.5-25.6h5l7.5,25.6h0.1l7.1-25.6h4.5l-9.3,32.1h-4.6l-7.7-26.2h-0.1
				l-7.7,26.2h-4.6L-917.7,436.1z"/>
			<path class="st3" d="M-867.2,439c0-0.8,0.3-1.5,0.9-2.1c0.6-0.6,1.3-0.9,2.1-0.9s1.5,0.3,2.1,0.9c0.6,0.6,0.9,1.3,0.9,2.1
				c0,0.8-0.3,1.5-0.9,2.1c-0.6,0.6-1.3,0.9-2.1,0.9s-1.5-0.3-2.1-0.9C-866.9,440.5-867.2,439.8-867.2,439z M-866.3,446.7h4.1v21.5
				h-4.1V446.7z"/>
			<path class="st3" d="M-839.7,450.2h-5.8v9.7c0,0.6,0,1.2,0,1.8c0,0.6,0.1,1.1,0.3,1.6c0.2,0.5,0.5,0.8,0.9,1.1
				c0.4,0.3,1,0.4,1.8,0.4c0.5,0,1,0,1.5-0.1c0.5-0.1,1-0.3,1.4-0.5v3.7c-0.5,0.3-1.1,0.5-1.9,0.6c-0.8,0.1-1.4,0.2-1.8,0.2
				c-1.6,0-2.8-0.2-3.6-0.7c-0.9-0.4-1.5-1-1.9-1.7c-0.4-0.7-0.6-1.5-0.7-2.3c-0.1-0.9-0.1-1.7-0.1-2.6v-11.2h-4.7v-3.5h4.7v-6h4.1
				v6h5.8V450.2z"/>
			<path class="st3" d="M-829.9,433.9h4.1V450h0.1c0.5-1.1,1.4-2.1,2.7-2.8c1.3-0.7,2.7-1.1,4.4-1.1c1,0,2,0.2,3,0.5
				c1,0.3,1.8,0.8,2.5,1.5c0.7,0.7,1.3,1.5,1.7,2.6c0.4,1,0.6,2.3,0.6,3.7v13.8h-4.1v-12.7c0-1-0.1-1.9-0.4-2.6
				c-0.3-0.7-0.6-1.3-1.1-1.7c-0.5-0.4-1-0.8-1.6-1c-0.6-0.2-1.2-0.3-1.8-0.3c-0.8,0-1.6,0.1-2.4,0.4c-0.7,0.3-1.4,0.7-1.9,1.3
				c-0.5,0.6-1,1.3-1.3,2.2c-0.3,0.9-0.5,2-0.5,3.2v11.1h-4.1V433.9z"/>
			<path class="st3" d="M-759.7,443c-0.9-1.2-2.1-2.1-3.4-2.7c-1.4-0.6-2.8-1-4.3-1c-1.8,0-3.4,0.3-4.9,1c-1.5,0.7-2.7,1.6-3.8,2.8
				c-1,1.2-1.8,2.6-2.4,4.1c-0.6,1.6-0.9,3.3-0.9,5.1c0,1.7,0.3,3.3,0.8,4.8c0.5,1.5,1.3,2.8,2.4,4c1,1.1,2.3,2.1,3.8,2.7
				c1.5,0.7,3.2,1,5,1c1.8,0,3.5-0.4,4.8-1.1c1.4-0.8,2.6-1.8,3.5-3.2l3.7,2.8c-0.2,0.3-0.7,0.8-1.3,1.4c-0.6,0.6-1.4,1.2-2.4,1.9
				c-1,0.6-2.2,1.2-3.6,1.6c-1.4,0.5-3,0.7-4.9,0.7c-2.5,0-4.8-0.5-6.9-1.4c-2-1-3.8-2.2-5.2-3.8c-1.4-1.6-2.5-3.3-3.3-5.3
				c-0.8-2-1.1-4-1.1-6c0-2.5,0.4-4.8,1.2-6.9c0.8-2.1,2-3.9,3.4-5.4c1.5-1.5,3.2-2.7,5.3-3.6c2.1-0.8,4.3-1.3,6.8-1.3
				c2.1,0,4.2,0.4,6.2,1.2c2,0.8,3.7,2.1,5,3.8L-759.7,443z"/>
			<path class="st3" d="M-747.7,457.4c0-1.6,0.3-3,0.9-4.4c0.6-1.4,1.4-2.5,2.4-3.6c1-1,2.2-1.8,3.6-2.4c1.4-0.6,2.9-0.9,4.5-0.9
				c1.6,0,3.1,0.3,4.5,0.9c1.4,0.6,2.6,1.4,3.6,2.4c1,1,1.8,2.2,2.4,3.6c0.6,1.4,0.9,2.8,0.9,4.4c0,1.6-0.3,3-0.9,4.4
				c-0.6,1.4-1.4,2.6-2.4,3.6c-1,1-2.2,1.8-3.6,2.4c-1.4,0.6-2.9,0.9-4.5,0.9c-1.6,0-3.1-0.3-4.5-0.9c-1.4-0.6-2.6-1.4-3.6-2.4
				c-1-1-1.8-2.2-2.4-3.6C-747.4,460.5-747.7,459-747.7,457.4z M-743.4,457.4c0,1.1,0.2,2.1,0.5,3c0.3,0.9,0.8,1.7,1.4,2.4
				c0.6,0.6,1.3,1.2,2.2,1.5c0.9,0.4,1.9,0.6,2.9,0.6c1.1,0,2.1-0.2,2.9-0.6c0.9-0.4,1.6-0.9,2.2-1.5c0.6-0.6,1.1-1.4,1.4-2.4
				c0.3-0.9,0.5-1.9,0.5-3c0-1.1-0.2-2.1-0.5-3c-0.3-0.9-0.8-1.7-1.4-2.4c-0.6-0.6-1.3-1.2-2.2-1.5c-0.9-0.4-1.9-0.6-2.9-0.6
				c-1.1,0-2.1,0.2-2.9,0.6c-0.9,0.4-1.6,0.9-2.2,1.5c-0.6,0.6-1.1,1.4-1.4,2.4C-743.2,455.3-743.4,456.3-743.4,457.4z"/>
			<path class="st3" d="M-715.1,449.3c1.1-1.1,2.5-1.8,4-2.4c1.5-0.5,3-0.8,4.5-0.8c1.6,0,2.9,0.2,4.1,0.6c1.1,0.4,2.1,0.9,2.8,1.6
				c0.7,0.7,1.3,1.4,1.6,2.3c0.3,0.9,0.5,1.8,0.5,2.7v11c0,0.8,0,1.5,0,2.1c0,0.6,0.1,1.2,0.1,1.8h-3.6c-0.1-1.1-0.1-2.2-0.1-3.3
				h-0.1c-0.9,1.4-2,2.4-3.2,2.9c-1.2,0.6-2.7,0.9-4.3,0.9c-1,0-1.9-0.1-2.9-0.4c-0.9-0.3-1.7-0.7-2.4-1.2c-0.7-0.5-1.2-1.2-1.6-2
				c-0.4-0.8-0.6-1.7-0.6-2.8c0-1.4,0.3-2.6,0.9-3.5c0.6-0.9,1.5-1.7,2.5-2.3c1.1-0.6,2.3-1,3.8-1.3c1.4-0.3,3-0.4,4.6-0.4h3v-0.9
				c0-0.5-0.1-1.1-0.3-1.6c-0.2-0.5-0.5-1-1-1.5c-0.4-0.4-1-0.8-1.6-1c-0.6-0.3-1.4-0.4-2.3-0.4c-0.8,0-1.5,0.1-2.1,0.2
				c-0.6,0.2-1.1,0.3-1.6,0.6c-0.5,0.2-0.9,0.5-1.3,0.8c-0.4,0.3-0.8,0.6-1.1,0.9L-715.1,449.3z M-703.6,457.8c-1,0-2,0.1-3,0.2
				c-1,0.1-1.9,0.3-2.8,0.6c-0.8,0.3-1.5,0.7-2,1.3c-0.5,0.5-0.8,1.2-0.8,2.1c0,1.2,0.4,2.1,1.2,2.7c0.8,0.5,2,0.8,3.4,0.8
				c1.1,0,2.1-0.2,2.9-0.6c0.8-0.4,1.4-0.9,1.9-1.5c0.5-0.6,0.8-1.3,1-2c0.2-0.7,0.3-1.5,0.3-2.2v-1.4H-703.6z"/>
			<path class="st3" d="M-671.9,452.4c-0.8-0.8-1.5-1.4-2.4-1.8c-0.8-0.4-1.8-0.6-3-0.6c-1.1,0-2.1,0.2-2.9,0.6
				c-0.8,0.4-1.5,1-2.1,1.7c-0.6,0.7-1,1.5-1.3,2.4c-0.3,0.9-0.4,1.9-0.4,2.9s0.2,1.9,0.5,2.8c0.3,0.9,0.8,1.7,1.4,2.3
				c0.6,0.7,1.3,1.2,2.2,1.6s1.8,0.6,2.9,0.6c1.1,0,2.1-0.2,2.9-0.6c0.8-0.4,1.6-1,2.3-1.8l2.9,2.9c-1.1,1.2-2.3,2-3.7,2.5
				c-1.4,0.5-2.9,0.8-4.5,0.8c-1.7,0-3.2-0.3-4.6-0.8c-1.4-0.5-2.6-1.3-3.6-2.3c-1-1-1.8-2.2-2.3-3.5c-0.5-1.4-0.8-2.9-0.8-4.6
				c0-1.7,0.3-3.2,0.8-4.6c0.5-1.4,1.3-2.6,2.3-3.6c1-1,2.2-1.8,3.5-2.3c1.4-0.6,2.9-0.8,4.6-0.8c1.6,0,3.1,0.3,4.5,0.8
				c1.4,0.6,2.7,1.4,3.7,2.6L-671.9,452.4z"/>
			<path class="st3" d="M-660.9,433.9h4.1V450h0.1c0.5-1.1,1.4-2.1,2.7-2.8c1.3-0.7,2.7-1.1,4.4-1.1c1,0,2,0.2,3,0.5
				c1,0.3,1.8,0.8,2.5,1.5c0.7,0.7,1.3,1.5,1.7,2.6c0.4,1,0.6,2.3,0.6,3.7v13.8h-4.1v-12.7c0-1-0.1-1.9-0.4-2.6
				c-0.3-0.7-0.6-1.3-1.1-1.7c-0.5-0.4-1-0.8-1.6-1c-0.6-0.2-1.2-0.3-1.8-0.3c-0.8,0-1.6,0.1-2.4,0.4c-0.7,0.3-1.4,0.7-1.9,1.3
				c-0.5,0.6-1,1.3-1.3,2.2s-0.5,2-0.5,3.2v11.1h-4.1V433.9z"/>
			<path class="st3" d="M-612,461.4c0.8,1.2,1.8,2,3,2.6c1.2,0.6,2.5,0.8,3.8,0.8c0.7,0,1.5-0.1,2.2-0.3c0.8-0.2,1.4-0.6,2.1-1
				c0.6-0.5,1.1-1,1.5-1.7c0.4-0.7,0.6-1.4,0.6-2.3c0-1.2-0.4-2.2-1.2-2.8c-0.8-0.6-1.8-1.2-2.9-1.6c-1.2-0.4-2.4-0.9-3.8-1.3
				c-1.4-0.4-2.6-1-3.8-1.7c-1.2-0.7-2.1-1.7-2.9-2.9c-0.8-1.2-1.2-2.9-1.2-5c0-0.9,0.2-1.9,0.6-3s1-2,1.9-2.9
				c0.9-0.9,2-1.6,3.4-2.2c1.4-0.6,3-0.9,5-0.9c1.8,0,3.4,0.2,5,0.7c1.6,0.5,3,1.5,4.2,2.9l-3.5,3.2c-0.5-0.8-1.3-1.5-2.3-2
				c-1-0.5-2.1-0.8-3.4-0.8c-1.2,0-2.2,0.2-3,0.5c-0.8,0.3-1.4,0.7-1.9,1.2c-0.5,0.5-0.8,1-1,1.6c-0.2,0.6-0.3,1.1-0.3,1.6
				c0,1.4,0.4,2.4,1.2,3.1c0.8,0.7,1.8,1.3,2.9,1.8c1.2,0.5,2.4,0.9,3.8,1.2c1.4,0.4,2.6,0.9,3.8,1.5c1.2,0.6,2.1,1.5,2.9,2.6
				c0.8,1.1,1.2,2.6,1.2,4.6c0,1.5-0.3,2.9-0.9,4.2c-0.6,1.2-1.4,2.3-2.4,3.1c-1,0.8-2.2,1.5-3.5,1.9c-1.4,0.5-2.8,0.7-4.3,0.7
				c-2.1,0-4-0.4-5.8-1.1c-1.8-0.7-3.3-1.8-4.4-3.4L-612,461.4z"/>
			<path class="st3" d="M-585,439c0-0.8,0.3-1.5,0.9-2.1c0.6-0.6,1.3-0.9,2.1-0.9s1.5,0.3,2.1,0.9c0.6,0.6,0.9,1.3,0.9,2.1
				c0,0.8-0.3,1.5-0.9,2.1c-0.6,0.6-1.3,0.9-2.1,0.9s-1.5-0.3-2.1-0.9C-584.7,440.5-585,439.8-585,439z M-584,446.7h4.1v21.5h-4.1
				V446.7z"/>
			<path class="st3" d="M-547.4,468.1h-4.1v-3.1h-0.1c-0.8,1.1-1.9,2-3.2,2.7c-1.4,0.6-2.8,1-4.2,1c-1.7,0-3.2-0.3-4.5-0.9
				c-1.3-0.6-2.5-1.4-3.4-2.4c-1-1-1.7-2.2-2.2-3.6c-0.5-1.4-0.8-2.8-0.8-4.4c0-1.6,0.3-3.1,0.8-4.5c0.5-1.4,1.2-2.6,2.2-3.6
				c1-1,2.1-1.8,3.4-2.4c1.3-0.6,2.8-0.9,4.5-0.9c1.5,0,3,0.3,4.3,1c1.4,0.6,2.4,1.5,3.1,2.6h0.1v-15.9h4.1V468.1z M-558.5,464.9
				c1.1,0,2.1-0.2,2.9-0.6c0.9-0.4,1.6-0.9,2.2-1.5c0.6-0.6,1.1-1.4,1.4-2.4c0.3-0.9,0.5-1.9,0.5-3c0-1.1-0.2-2.1-0.5-3
				c-0.3-0.9-0.8-1.7-1.4-2.4c-0.6-0.6-1.3-1.2-2.2-1.5c-0.9-0.4-1.9-0.6-2.9-0.6c-1.1,0-2.1,0.2-2.9,0.6c-0.9,0.4-1.6,0.9-2.2,1.5
				c-0.6,0.6-1.1,1.4-1.4,2.4c-0.3,0.9-0.5,1.9-0.5,3c0,1.1,0.2,2.1,0.5,3c0.3,0.9,0.8,1.7,1.4,2.4c0.6,0.6,1.3,1.2,2.2,1.5
				C-560.6,464.7-559.6,464.9-558.5,464.9z"/>
		</g>
	</g>
	<g>
		<path class="st2" d="M-612,363h-37.1v-86.6c0-9.3-2.3-16.7-7-22.1c-3.9-4.8-9-7.3-15.1-7.3c-6.5,0-12,2.6-16.7,7.8
			c-5,5.7-7.5,13.3-7.5,22.6V363h-37.9V277c0-9.7-1.2-16.6-3.5-20.7c-3.4-5.6-9.8-8.3-19.1-8.3c-15.4,0-23.1,9.3-23.1,28V363h-37.9
			V219.7h35.8v13.7c0,5.2,0.1,7.8,0.3,7.8c0-0.2,0.1-0.4,0.3-0.5c5.6-8.6,11.2-14.8,16.9-18.6c6.5-4.1,14.5-6.2,24.2-6.2
			c9.7,0,17.4,1.7,23.3,5.2c5.8,3.5,11.3,9.5,16.5,17.9c5.2-7.7,10.8-13.6,16.8-17.6c6-4,13.3-6.1,21.9-6.1c9.1,0,17.9,2.3,26.2,7
			c8.3,4.7,14.2,10.7,17.6,18.2c3.4,7.4,5.1,15.2,5.1,23.3V363z"/>
		<path class="st2" d="M-467.3,301.4H-566c0.9,11.8,4.7,21,11.3,27.4c5.7,5.4,12.7,8.1,21,8.1c6.1,0,11.6-1.4,16.4-4.3
			c4.8-2.9,8-6.7,9.4-11.6h38.7c-4.3,14.5-12,25.8-23.1,33.7c-11.1,8-24.3,12-39.5,12c-47.9,0-71.8-26.1-71.8-78.3
			c0-22.1,6.1-39.7,18.2-52.8c12.1-13.2,29.1-19.8,51-19.8C-489.7,215.9-467.3,244.4-467.3,301.4z M-506,277.5
			c-0.9-9.6-4.2-17.1-9.8-22.7c-5.6-5.5-12.1-8.3-19.5-8.3c-7.2,0-13.4,2.6-18.6,7.7c-5.7,5.5-9.3,13.2-10.8,23.2H-506z"/>
		<path class="st2" d="M-329.9,317.3c0,10.2-2.5,19.1-7.5,26.6c-10.8,15.6-29.4,23.4-55.9,23.4c-18.1,0-33.6-4.1-46.5-12.4
			c-14.3-9.3-21.6-21.9-21.8-37.6h39c0,7,3,12.5,9.1,16.4c5.4,3.4,12,5.1,19.9,5.1c7,0,13-1.4,18.2-4.2c5.1-2.8,7.7-6.4,7.7-10.9
			c0-5.9-7.6-10.6-22.9-14c-22.6-5.2-36.8-9.2-42.8-12.1c-15.2-7.3-22.9-18.6-22.9-33.9c0-9,2.2-17.1,6.5-24.5
			c4.3-7.3,11.6-13.2,21.8-17.6c10.2-4.4,21.2-6.6,33.1-6.6c16.1,0,29.7,3.9,40.6,11.6c12.5,8.6,19.3,20.8,20.2,36.6h-37.4
			c-2-12.7-10.4-19.1-25.3-19.1c-6.1,0-11.4,1.3-15.9,4c-4.5,2.7-6.7,6.1-6.7,10.2c0,5.4,7.7,9.8,23.1,13.2
			c22.4,5,36.8,9.1,43.3,12.1C-337.6,291.2-329.9,302.4-329.9,317.3z"/>
		<g>
			<g>
				<path class="st2" d="M-830.1,279.1c-1.5-18.9-10.2-37.3-24.5-49.8c-13.1-11.3-30.3-17.2-47.6-17.3c-12.3-0.1-24.5,2.8-35.2,8.8
					c-12.8,7.1-23.2,18-33.3,28.6c-16,16.9-32.1,33.8-48.1,50.6c-8,8.5-16.4,17.2-27.3,21.4c-16.1,6.2-35.9,0.3-46.1-13.6
					c-10.2-13.9-9.8-34.6,0.9-48.1c10.6-13.5,30.6-18.8,46.5-12.4c16,6.4,26.7,24,25.2,41.1c9.4-9.6,18.9-19.1,28.3-28.7
					c-10.7-30-43-50.7-74.8-47.9c-40.9,3.6-72.3,43.8-65.1,84.2c3.2,18.2,13.1,35.3,27.9,46.4c21.2,16,51.7,18.8,75.3,6.7
					c13.9-7.1,25-18.7,35.8-30c16.9-17.7,33.8-35.3,50.6-53c6.5-6.8,13.2-13.7,21.6-17.9c15.9-7.8,36.8-3.4,48.2,10.1
					c11.4,13.5,12.3,34.8,2.1,49.2c-10.3,14.4-30.8,20.5-47.2,14c-16.5-6.4-27.4-24.8-25.2-42.4c-9.6,9.6-19.2,19.3-28.7,28.9
					c9.7,27.9,38,48.3,67.5,48.7c14.5,0.2,28.8-4.4,40.8-12.4v18h32.5v-83.3H-830.1z"/>
			</g>
		</g>
		<path class="st2" d="M-1019.6,358v4.5h0.1v8.5c0,8.4-3.3,15.1-9.9,20.3c-6,4.6-13,6.8-21.1,6.8c-7.5,0-13.7-2-18.6-6
			c-5.5-4.5-8.3-10.6-8.3-18.4h-30.1c0,16.7,6.1,30,18.4,39.7c11,8.7,24.6,13,40.7,13c16.4,0,30.4-4.4,42.1-13.1
			c12.7-9.8,19.1-22.9,19.1-39.1v-11.7V362v-37L-1019.6,358z"/>
	</g>
</g>
<g>
	<path class="st3" d="M-1290.5,1149.7c-1.7-18.5-11.3-39-27.3-52.8c-14.5-12.5-33.7-19.1-52.9-19.2c-13.6-0.1-27.2,3.1-39.1,9.7
		c-14.2,7.9-25.7,19.9-37,31.8c-17.8,18.8-35.6,37.5-53.4,56.3c-9,9.4-18.3,19.1-30.4,23.8c-17.9,6.8-40,0.3-51.2-15.1
		c-11.3-15.5-10.8-38.4,1-53.5c11.8-15,34-20.9,51.7-13.8c17.8,7.1,29.7,26.6,28,45.7c10.5-10.6,21-21.3,31.4-31.9
		c-11.9-33.4-47.8-56.4-83.1-53.3c-45.5,4-80.4,48.7-72.3,93.6c3.6,20.2,14.6,39.2,31,51.6c23.6,17.8,57.5,20.9,83.7,7.5
		c15.5-7.9,27.8-20.8,39.8-33.3c18.8-19.6,37.5-39.3,56.3-58.9c7.2-7.5,14.6-15.3,24-19.9c17.7-8.7,40.9-3.8,53.6,11.2
		c12.7,15,13.7,38.7,2.3,54.7c-11.4,16-34.2,22.8-52.5,15.6c-18.3-7.1-30.5-27.6-28-47.1c-10.7,10.7-21.3,21.4-32,32.2
		c10.8,31,42.2,53.6,75.1,54.1c16.1,0.2,32-4.9,46.6-13.8v18.6h38.6v-93.7H-1290.5z"/>
	<path class="st3" d="M-1638.3,1162c-6.6,34.8-23.4,59.5-50.3,73.8c-14.3,7.7-30.7,11.5-49.1,11.5c-20,0-38.2-4.4-54.3-13.1
		c-16.1-8.8-28.7-22-38-39.8c-9.2-17.8-13.8-39.7-13.8-66c0-20.9,3-39.6,8.9-56.1c10.4-29.2,28.5-49.2,54.2-59.9
		c13.5-5.3,28.1-8,43.6-8c18.4,0,34.8,3.7,49.4,10.9c29.7,14.5,46.2,38.2,49.4,71.2h-48.4c-3.2-13-9.5-23.1-18.8-30.1
		c-9.3-7.1-19.6-10.6-30.9-10.6c-18.4,0-32.8,7.4-43.3,22.1c-10.4,14.8-15.7,34.1-15.7,58c0,20.8,4.1,38.3,12.2,52.6
		c9.9,17.9,24.5,26.9,44,26.9c28.6,0,46.2-14.5,52.6-43.3H-1638.3z"/>
	<path class="st3" d="M-946.9,1240.8h-45.2v-103.2c0-12-1.9-20.4-5.8-25.3c-4.5-5.8-12.4-8.7-23.8-8.7c-11.1,0-19.7,3.8-25.8,11.2
		c-6.1,7.5-9.2,16.9-9.2,28.2v97.8h-45.2v-230.5h45.2v82.1c3.4-7.5,9.9-13.5,19.2-18c9.4-4.5,19.8-6.7,31.1-6.7
		c16.3,0,29.8,4.3,40.7,12.8c12.4,9.8,18.6,23.8,18.6,42V1240.8z"/>
	<path class="st3" d="M-1112,1131.2h-45.2c-1.5-8.7-5-15.7-10.5-20.7c-5.5-5-12-7.5-19.3-7.5c-12,0-21.3,5.6-27.9,16.7
		c-5.4,9.4-8,20.4-8,33c0,36.8,11.2,55.3,33.7,55.8c7.9,0,14.9-2.6,21-7.8c6.1-5.2,9.5-12.5,10.4-21.7h45.5
		c-2.6,20.1-11.2,36.3-25.8,48.6c-14.6,12.3-32.2,18.5-52.7,18.8c-25.7,0-45.3-8.4-59-25c-12.9-15.6-19.3-36.4-19.3-62.5
		c0-27.8,6.2-49.8,18.6-66c13.9-18.2,34.3-27.3,61.3-27.3c21.4,0,39,5.6,52.9,16.7C-1121.4,1094.1-1113.3,1110.4-1112,1131.2"/>
	<g>
		
			<text transform="matrix(1 0 0 1 -1843.8561 1507.9275)" class="st2" style="font-family:'CoolveticaRg-Regular'; font-size:328.3715px;">Sid</text>
	</g>
</g>
<g>
	<g>
		<path class="st3" d="M-3058,1971.9c-1-11.1-6.8-23.3-16.3-31.6c-8.7-7.5-20.2-11.5-31.7-11.5c-8.1-0.1-16.3,1.8-23.5,5.8
			c-8.5,4.8-15.4,12-22.1,19.1c-10.7,11.2-21.3,22.5-32,33.7c-5.4,5.6-11,11.5-18.2,14.2c-10.7,4.1-23.9,0.2-30.7-9.1
			c-6.8-9.3-6.5-23,0.6-32.1c7.1-9,20.3-12.5,31-8.2c10.6,4.3,17.8,15.9,16.8,27.4c6.3-6.4,12.6-12.7,18.8-19.1
			c-7.1-20-28.7-33.8-49.8-31.9c-27.2,2.4-48.1,29.2-43.3,56.1c2.2,12.1,8.8,23.5,18.6,30.9c14.1,10.6,34.4,12.5,50.2,4.5
			c9.3-4.8,16.7-12.4,23.9-20c11.2-11.8,22.5-23.5,33.7-35.3c4.3-4.5,8.8-9.2,14.4-11.9c10.6-5.2,24.5-2.3,32.1,6.7
			c7.6,9,8.2,23.2,1.4,32.8c-6.8,9.6-20.5,13.6-31.5,9.3c-11-4.3-18.3-16.5-16.8-28.2c-6.4,6.4-12.8,12.8-19.2,19.3
			c6.5,18.6,25.3,32.1,45,32.4c9.7,0.1,19.2-2.9,27.9-8.3v11.1h23.1v-56.1H-3058z"/>
		<path class="st3" d="M-3266.4,1979.2c-4,20.9-14,35.6-30.2,44.2c-8.6,4.6-18.4,6.9-29.4,6.9c-12,0-22.9-2.6-32.5-7.9
			c-9.6-5.3-17.2-13.2-22.8-23.8c-5.5-10.6-8.3-23.8-8.3-39.6c0-12.5,1.8-23.8,5.4-33.6c6.2-17.5,17.1-29.5,32.5-35.9
			c8.1-3.2,16.8-4.8,26.1-4.8c11,0,20.9,2.2,29.6,6.6c17.8,8.7,27.7,22.9,29.6,42.6h-29c-1.9-7.8-5.7-13.8-11.2-18.1
			c-5.6-4.2-11.8-6.4-18.5-6.4c-11,0-19.7,4.4-25.9,13.3c-6.3,8.8-9.4,20.4-9.4,34.7c0,12.4,2.4,23,7.3,31.5
			c5.9,10.7,14.7,16.1,26.3,16.1c17.1,0,27.7-8.7,31.5-26H-3266.4z"/>
		<path class="st3" d="M-2852.1,2026.5h-27.1v-61.9c0-7.2-1.1-12.2-3.5-15.2c-2.7-3.5-7.4-5.2-14.2-5.2c-6.6,0-11.8,2.3-15.4,6.7
			c-3.6,4.5-5.5,10.1-5.5,16.9v58.6h-27.1v-138.1h27.1v49.2c2.1-4.5,5.9-8.1,11.5-10.8c5.7-2.7,11.9-4,18.7-4
			c9.7,0,17.9,2.6,24.4,7.7c7.4,5.9,11.2,14.3,11.2,25.2V2026.5z"/>
		<path class="st3" d="M-2951,1960.8h-27.1c-0.9-5.2-3-9.4-6.3-12.4c-3.3-3-7.2-4.5-11.5-4.5c-7.2,0-12.8,3.3-16.7,10
			c-3.2,5.7-4.8,12.3-4.8,19.8c0,22,6.7,33.1,20.2,33.4c4.7,0,8.9-1.6,12.6-4.7c3.6-3.1,5.7-7.5,6.2-13h27.3
			c-1.5,12.1-6.7,21.7-15.5,29.1c-8.8,7.4-19.3,11.1-31.6,11.2c-15.4,0-27.1-5-35.3-15c-7.7-9.3-11.5-21.8-11.5-37.5
			c0-16.6,3.7-29.8,11.1-39.6c8.3-10.9,20.6-16.3,36.7-16.3c12.8,0,23.4,3.3,31.7,10C-2956.7,1938.6-2951.8,1948.4-2951,1960.8"/>
		<g>
			<g>
				<path class="st3" d="M-2733.4,1934.7c-1.4-13.4-9.4-19.9-26-19.9c-15.3,0-23.4,5.5-23.4,15.3c0,8.3,5.7,13,20.3,16.5
					c14.8,3.5,29.1,7.1,38.8,11.4c11.4,5.1,20.5,13.2,20.5,31.7c0,28.7-21.6,41.5-52.1,41.5c-32.3,0-54.7-14.4-55.3-43.7h26.4
					c0.4,13.4,11.6,21.6,29.1,21.6c16.1,0,25.4-6.9,25.4-18.5c0-7.7-3.9-13-20.3-16.5c-16.1-3.5-26.6-5.9-35.8-10
					c-14-6.3-21.8-15.7-21.8-32.3c0-23.4,15.9-40.1,47.8-40.1c33.1,0,51.5,17.9,52.5,42.9H-2733.4z"/>
				<path class="st3" d="M-2695.5,1918.4v-23.8h25.6v23.8H-2695.5z M-2695.5,2026.8V1930h25.6v96.8H-2695.5z"/>
				<path class="st3" d="M-2591.2,2026.8l-0.2-11.8c-6.1,9.8-15.1,14.4-27,14.4c-24.4,0-41.9-19.3-41.9-51.9c0-29.3,14.8-50,39.7-50
					c12,0,21.4,4.9,28.7,15.1v-48h25.2v132.2H-2591.2z M-2590.8,1980.8c0-21.1-7.3-31.5-21.4-31.5c-15,0-22,10-22,29.9
					c0,17.3,9.1,29.3,21.8,29.3C-2600.2,2008.5-2590.8,1997.1-2590.8,1980.8z"/>
			</g>
		</g>
	</g>
</g>
<path class="st2" d="M-2403.4,1313.7c-0.6-6.3-3.9-13.3-9.3-18c-5-4.3-11.5-6.5-18.1-6.6c-4.7,0-9.3,1.1-13.4,3.3
	c-4.9,2.7-8.8,6.8-12.6,10.9c-6.1,6.4-12.2,12.8-18.3,19.2c-3.1,3.2-6.2,6.5-10.4,8.1c-6.1,2.3-13.6,0.1-17.5-5.2
	c-3.9-5.3-3.7-13.1,0.3-18.3c4-5.1,11.6-7.1,17.7-4.7s10.1,9.1,9.6,15.6c3.6-3.6,7.2-7.3,10.8-10.9c-4.1-11.4-16.4-19.3-28.4-18.2
	c-15.5,1.4-27.5,16.6-24.7,32c1.2,6.9,5,13.4,10.6,17.6c8.1,6.1,19.6,7.1,28.6,2.6c5.3-2.7,9.5-7.1,13.6-11.4
	c6.4-6.7,12.8-13.4,19.2-20.1c2.5-2.6,5-5.2,8.2-6.8c6-3,14-1.3,18.3,3.8c4.3,5.1,4.7,13.2,0.8,18.7c-3.9,5.5-11.7,7.8-17.9,5.3
	c-6.3-2.4-10.4-9.4-9.6-16.1c-3.6,3.7-7.3,7.3-10.9,11c3.7,10.6,14.4,18.3,25.6,18.5c5.5,0.1,10.9-1.7,15.9-4.7v6.3h13.2v-32
	H-2403.4z"/>
<path class="st2" d="M-2522.2,1317.9c-2.3,11.9-8,20.3-17.2,25.2c-4.9,2.6-10.5,3.9-16.8,3.9c-6.9,0-13-1.5-18.6-4.5
	c-5.5-3-9.8-7.5-13-13.6c-3.1-6.1-4.7-13.6-4.7-22.6c0-7.1,1-13.5,3.1-19.2c3.6-10,9.7-16.8,18.5-20.5c4.6-1.8,9.6-2.8,14.9-2.8
	c6.3,0,11.9,1.3,16.9,3.7c10.2,5,15.8,13.1,16.9,24.3h-16.5c-1.1-4.5-3.2-7.9-6.4-10.3c-3.2-2.4-6.7-3.6-10.6-3.6
	c-6.3,0-11.2,2.5-14.8,7.6c-3.6,5-5.4,11.6-5.4,19.8c0,7.1,1.4,13.1,4.2,18c3.4,6.1,8.4,9.2,15,9.2c9.8,0,15.8-4.9,18-14.8H-2522.2z
	"/>
<path class="st2" d="M-2285.9,1344.9h-15.5v-35.3c0-4.1-0.6-7-2-8.7c-1.5-2-4.2-3-8.1-3c-3.8,0-6.7,1.3-8.8,3.8
	c-2.1,2.5-3.1,5.8-3.1,9.6v33.4h-15.4v-78.8h15.4v28c1.2-2.5,3.4-4.6,6.6-6.1c3.2-1.5,6.8-2.3,10.6-2.3c5.5,0,10.2,1.5,13.9,4.4
	c4.2,3.4,6.4,8.1,6.4,14.4V1344.9z"/>
<path class="st2" d="M-2342.4,1307.4h-15.5c-0.5-3-1.7-5.4-3.6-7.1c-1.9-1.7-4.1-2.6-6.6-2.6c-4.1,0-7.3,1.9-9.5,5.7
	c-1.8,3.2-2.7,7-2.7,11.3c0,12.6,3.8,18.9,11.5,19.1c2.7,0,5.1-0.9,7.2-2.7c2.1-1.8,3.3-4.3,3.6-7.4h15.6
	c-0.9,6.9-3.8,12.4-8.8,16.6c-5,4.2-11,6.3-18,6.4c-8.8,0-15.5-2.8-20.2-8.5c-4.4-5.3-6.6-12.4-6.6-21.4c0-9.5,2.1-17,6.3-22.6
	c4.8-6.2,11.7-9.3,20.9-9.3c7.3,0,13.3,1.9,18.1,5.7C-2345.6,1294.7-2342.8,1300.3-2342.4,1307.4"/>
</svg>
